M48
; DRILL file {KiCad 7.0.9} date Wed Dec 25 11:06:02 2024
; FORMAT={-:-/ absolute / metric / decimal}
; #@! TF.CreationDate,2024-12-25T11:06:02-08:00
; #@! TF.GenerationSoftware,Kicad,Pcbnew,7.0.9
; #@! TF.FileFunction,Plated,1,2,PTH
FMAT,2
METRIC
; #@! TA.AperFunction,Plated,PTH,ViaDrill
T1C0.400
; #@! TA.AperFunction,Plated,PTH,ComponentDrill
T2C0.400
; #@! TA.AperFunction,Plated,PTH,ComponentDrill
T3C0.800
; #@! TA.AperFunction,Plated,PTH,ComponentDrill
T4C1.000
; #@! TA.AperFunction,Plated,PTH,ComponentDrill
T5C1.020
%
G90
G05
T1
X100.838Y-96.012
X105.928Y-75.682
X106.934Y-95.758
X110.436Y-94.18
X112.522Y-89.408
X115.316Y-77.978
X116.078Y-85.598
X116.84Y-79.502
X123.444Y-82.55
X126.238Y-86.36
X136.906Y-76.454
X146.05Y-99.028
X162.56Y-75.184
X166.624Y-71.12
X172.466Y-92.71
T4
X112.014Y-108.204
X112.014Y-110.744
X155.702Y-81.026
X155.702Y-88.626
X175.514Y-74.676
X175.514Y-77.216
X175.514Y-79.756
X175.514Y-82.296
X175.514Y-84.836
X175.514Y-87.376
X175.514Y-89.916
X175.514Y-92.456
X175.514Y-94.996
T5
X103.378Y-72.898
X103.378Y-98.298
X105.918Y-72.898
X105.918Y-98.298
X108.458Y-72.898
X108.458Y-98.298
X110.998Y-72.898
X110.998Y-98.298
X113.538Y-72.898
X113.538Y-98.298
X116.078Y-72.898
X116.078Y-98.298
X118.618Y-72.898
X118.618Y-98.298
X121.158Y-72.898
X121.158Y-98.298
X123.698Y-72.898
X123.698Y-98.298
X126.238Y-72.898
X126.238Y-98.298
X128.778Y-72.898
X128.778Y-98.298
X131.318Y-72.898
X131.318Y-98.298
X133.858Y-72.898
X133.858Y-98.298
X136.398Y-72.898
X136.398Y-98.298
X138.938Y-72.898
X138.938Y-98.298
T2
X98.298Y-106.514G85X98.298Y-107.514
G05
X103.798Y-102.014G85X102.798Y-102.014
G05
X102.798Y-112.014G85X103.798Y-112.014
G05
X166.362Y-102.014G85X165.362Y-102.014
G05
X165.362Y-112.014G85X166.362Y-112.014
G05
X170.862Y-107.514G85X170.862Y-106.514
G05
T3
X103.648Y-104.514G85X102.948Y-104.514
G05
X102.948Y-109.514G85X103.648Y-109.514
G05
X166.212Y-104.514G85X165.512Y-104.514
G05
X165.512Y-109.514G85X166.212Y-109.514
G05
T0
M30
