%TF.GenerationSoftware,KiCad,Pcbnew,7.0.9*%
%TF.CreationDate,2024-12-25T11:05:57-08:00*%
%TF.ProjectId,ESP32btCWKeyBrd_Kicad Files,45535033-3262-4744-9357-4b6579427264,rev?*%
%TF.SameCoordinates,Original*%
%TF.FileFunction,Soldermask,Top*%
%TF.FilePolarity,Negative*%
%FSLAX46Y46*%
G04 Gerber Fmt 4.6, Leading zero omitted, Abs format (unit mm)*
G04 Created by KiCad (PCBNEW 7.0.9) date 2024-12-25 11:05:57*
%MOMM*%
%LPD*%
G01*
G04 APERTURE LIST*
G04 Aperture macros list*
%AMRoundRect*
0 Rectangle with rounded corners*
0 $1 Rounding radius*
0 $2 $3 $4 $5 $6 $7 $8 $9 X,Y pos of 4 corners*
0 Add a 4 corners polygon primitive as box body*
4,1,4,$2,$3,$4,$5,$6,$7,$8,$9,$2,$3,0*
0 Add four circle primitives for the rounded corners*
1,1,$1+$1,$2,$3*
1,1,$1+$1,$4,$5*
1,1,$1+$1,$6,$7*
1,1,$1+$1,$8,$9*
0 Add four rect primitives between the rounded corners*
20,1,$1+$1,$2,$3,$4,$5,0*
20,1,$1+$1,$4,$5,$6,$7,0*
20,1,$1+$1,$6,$7,$8,$9,0*
20,1,$1+$1,$8,$9,$2,$3,0*%
G04 Aperture macros list end*
%ADD10RoundRect,0.150000X-0.150000X0.587500X-0.150000X-0.587500X0.150000X-0.587500X0.150000X0.587500X0*%
%ADD11RoundRect,0.250000X0.650000X-0.325000X0.650000X0.325000X-0.650000X0.325000X-0.650000X-0.325000X0*%
%ADD12RoundRect,0.250000X0.325000X0.650000X-0.325000X0.650000X-0.325000X-0.650000X0.325000X-0.650000X0*%
%ADD13RoundRect,0.250000X-0.625000X0.312500X-0.625000X-0.312500X0.625000X-0.312500X0.625000X0.312500X0*%
%ADD14RoundRect,0.250000X-0.312500X-0.625000X0.312500X-0.625000X0.312500X0.625000X-0.312500X0.625000X0*%
%ADD15RoundRect,0.250000X0.312500X0.625000X-0.312500X0.625000X-0.312500X-0.625000X0.312500X-0.625000X0*%
%ADD16C,1.200000*%
%ADD17O,2.200000X1.200000*%
%ADD18O,2.300000X1.600000*%
%ADD19O,1.200000X2.200000*%
%ADD20O,2.500000X1.600000*%
%ADD21RoundRect,0.250000X-0.650000X0.325000X-0.650000X-0.325000X0.650000X-0.325000X0.650000X0.325000X0*%
%ADD22RoundRect,0.250000X0.625000X-0.312500X0.625000X0.312500X-0.625000X0.312500X-0.625000X-0.312500X0*%
%ADD23R,1.700000X1.700000*%
%ADD24O,1.700000X1.700000*%
%ADD25RoundRect,0.250000X-0.850000X-0.350000X0.850000X-0.350000X0.850000X0.350000X-0.850000X0.350000X0*%
%ADD26RoundRect,0.249997X-2.950003X-2.650003X2.950003X-2.650003X2.950003X2.650003X-2.950003X2.650003X0*%
%ADD27R,2.000000X2.000000*%
%ADD28C,2.000000*%
%ADD29C,3.000000*%
%ADD30RoundRect,0.102000X1.000000X-1.000000X1.000000X1.000000X-1.000000X1.000000X-1.000000X-1.000000X0*%
%ADD31C,2.204000*%
G04 APERTURE END LIST*
D10*
%TO.C,Q2*%
X115250000Y-76532500D03*
X113350000Y-76532500D03*
X114300000Y-78407500D03*
%TD*%
D11*
%TO.C,C3*%
X166624000Y-75389000D03*
X166624000Y-72439000D03*
%TD*%
%TO.C,C1*%
X100838000Y-94693000D03*
X100838000Y-91743000D03*
%TD*%
D10*
%TO.C,Q1*%
X110424000Y-82628500D03*
X108524000Y-82628500D03*
X109474000Y-84503500D03*
%TD*%
D12*
%TO.C,C4*%
X172417000Y-94742000D03*
X169467000Y-94742000D03*
%TD*%
D13*
%TO.C,R4*%
X114300000Y-80772000D03*
X114300000Y-83697000D03*
%TD*%
D14*
%TO.C,R5*%
X117979000Y-87376000D03*
X120904000Y-87376000D03*
%TD*%
D15*
%TO.C,R6*%
X120904000Y-84582000D03*
X117979000Y-84582000D03*
%TD*%
D16*
%TO.C,J1*%
X98298000Y-102014000D03*
X95798000Y-102014000D03*
X103298000Y-107014000D03*
X98298000Y-112014000D03*
X95798000Y-112014000D03*
D17*
X103298000Y-102014000D03*
D18*
X103298000Y-104514000D03*
D19*
X98298000Y-107014000D03*
D17*
X103298000Y-112014000D03*
D20*
X103298000Y-109514000D03*
%TD*%
D21*
%TO.C,C2*%
X114554000Y-85647000D03*
X114554000Y-88597000D03*
%TD*%
D12*
%TO.C,C5*%
X126415500Y-84582000D03*
X123465500Y-84582000D03*
%TD*%
D16*
%TO.C,J3*%
X170862000Y-112014000D03*
X173362000Y-112014000D03*
X165862000Y-107014000D03*
X170862000Y-102014000D03*
X173362000Y-102014000D03*
D17*
X165862000Y-112014000D03*
D18*
X165862000Y-109514000D03*
D19*
X170862000Y-107014000D03*
D17*
X165862000Y-102014000D03*
D20*
X165862000Y-104514000D03*
%TD*%
D22*
%TO.C,R2*%
X110744000Y-90108500D03*
X110744000Y-87183500D03*
%TD*%
D23*
%TO.C,J4*%
X112014000Y-108204000D03*
D24*
X112014000Y-110744000D03*
%TD*%
D25*
%TO.C,Q3*%
X118771000Y-75951000D03*
X118771000Y-78231000D03*
D26*
X125071000Y-78231000D03*
D25*
X118771000Y-80511000D03*
%TD*%
D27*
%TO.C,LS1*%
X155702000Y-88626000D03*
D28*
X155702000Y-81026000D03*
%TD*%
D13*
%TO.C,R3*%
X106934000Y-87183500D03*
X106934000Y-90108500D03*
%TD*%
D29*
%TO.C,U1*%
X95418000Y-97878000D03*
X142368000Y-97878000D03*
X95418000Y-73368000D03*
X142368000Y-73368000D03*
D30*
X103378000Y-98298000D03*
D31*
X105918000Y-98298000D03*
X108458000Y-98298000D03*
X110998000Y-98298000D03*
X113538000Y-98298000D03*
X116078000Y-98298000D03*
X118618000Y-98298000D03*
X121158000Y-98298000D03*
X123698000Y-98298000D03*
X126238000Y-98298000D03*
X128778000Y-98298000D03*
X131318000Y-98298000D03*
X133858000Y-98298000D03*
X136398000Y-98298000D03*
X138938000Y-98298000D03*
X138938000Y-72898000D03*
X136398000Y-72898000D03*
X133858000Y-72898000D03*
X131318000Y-72898000D03*
X128778000Y-72898000D03*
X126238000Y-72898000D03*
X123698000Y-72898000D03*
X121158000Y-72898000D03*
X118618000Y-72898000D03*
X116078000Y-72898000D03*
X113538000Y-72898000D03*
X110998000Y-72898000D03*
X108458000Y-72898000D03*
X105918000Y-72898000D03*
X103378000Y-72898000D03*
%TD*%
D23*
%TO.C,J2*%
X175514000Y-74676000D03*
D24*
X175514000Y-77216000D03*
X175514000Y-79756000D03*
X175514000Y-82296000D03*
X175514000Y-84836000D03*
X175514000Y-87376000D03*
X175514000Y-89916000D03*
X175514000Y-92456000D03*
X175514000Y-94996000D03*
%TD*%
D22*
%TO.C,R1*%
X108458000Y-79379000D03*
X108458000Y-76454000D03*
%TD*%
M02*
