%TF.GenerationSoftware,KiCad,Pcbnew,7.0.9*%
%TF.CreationDate,2024-12-25T11:05:57-08:00*%
%TF.ProjectId,ESP32btCWKeyBrd_Kicad Files,45535033-3262-4744-9357-4b6579427264,rev?*%
%TF.SameCoordinates,Original*%
%TF.FileFunction,Copper,L1,Top*%
%TF.FilePolarity,Positive*%
%FSLAX46Y46*%
G04 Gerber Fmt 4.6, Leading zero omitted, Abs format (unit mm)*
G04 Created by KiCad (PCBNEW 7.0.9) date 2024-12-25 11:05:57*
%MOMM*%
%LPD*%
G01*
G04 APERTURE LIST*
G04 Aperture macros list*
%AMRoundRect*
0 Rectangle with rounded corners*
0 $1 Rounding radius*
0 $2 $3 $4 $5 $6 $7 $8 $9 X,Y pos of 4 corners*
0 Add a 4 corners polygon primitive as box body*
4,1,4,$2,$3,$4,$5,$6,$7,$8,$9,$2,$3,0*
0 Add four circle primitives for the rounded corners*
1,1,$1+$1,$2,$3*
1,1,$1+$1,$4,$5*
1,1,$1+$1,$6,$7*
1,1,$1+$1,$8,$9*
0 Add four rect primitives between the rounded corners*
20,1,$1+$1,$2,$3,$4,$5,0*
20,1,$1+$1,$4,$5,$6,$7,0*
20,1,$1+$1,$6,$7,$8,$9,0*
20,1,$1+$1,$8,$9,$2,$3,0*%
G04 Aperture macros list end*
%TA.AperFunction,SMDPad,CuDef*%
%ADD10RoundRect,0.150000X-0.150000X0.587500X-0.150000X-0.587500X0.150000X-0.587500X0.150000X0.587500X0*%
%TD*%
%TA.AperFunction,SMDPad,CuDef*%
%ADD11RoundRect,0.250000X0.650000X-0.325000X0.650000X0.325000X-0.650000X0.325000X-0.650000X-0.325000X0*%
%TD*%
%TA.AperFunction,SMDPad,CuDef*%
%ADD12RoundRect,0.250000X0.325000X0.650000X-0.325000X0.650000X-0.325000X-0.650000X0.325000X-0.650000X0*%
%TD*%
%TA.AperFunction,SMDPad,CuDef*%
%ADD13RoundRect,0.250000X-0.625000X0.312500X-0.625000X-0.312500X0.625000X-0.312500X0.625000X0.312500X0*%
%TD*%
%TA.AperFunction,SMDPad,CuDef*%
%ADD14RoundRect,0.250000X-0.312500X-0.625000X0.312500X-0.625000X0.312500X0.625000X-0.312500X0.625000X0*%
%TD*%
%TA.AperFunction,SMDPad,CuDef*%
%ADD15RoundRect,0.250000X0.312500X0.625000X-0.312500X0.625000X-0.312500X-0.625000X0.312500X-0.625000X0*%
%TD*%
%TA.AperFunction,ComponentPad*%
%ADD16O,2.200000X1.200000*%
%TD*%
%TA.AperFunction,ComponentPad*%
%ADD17O,2.300000X1.600000*%
%TD*%
%TA.AperFunction,ComponentPad*%
%ADD18O,1.200000X2.200000*%
%TD*%
%TA.AperFunction,ComponentPad*%
%ADD19O,2.500000X1.600000*%
%TD*%
%TA.AperFunction,SMDPad,CuDef*%
%ADD20RoundRect,0.250000X-0.650000X0.325000X-0.650000X-0.325000X0.650000X-0.325000X0.650000X0.325000X0*%
%TD*%
%TA.AperFunction,SMDPad,CuDef*%
%ADD21RoundRect,0.250000X0.625000X-0.312500X0.625000X0.312500X-0.625000X0.312500X-0.625000X-0.312500X0*%
%TD*%
%TA.AperFunction,ComponentPad*%
%ADD22R,1.700000X1.700000*%
%TD*%
%TA.AperFunction,ComponentPad*%
%ADD23O,1.700000X1.700000*%
%TD*%
%TA.AperFunction,SMDPad,CuDef*%
%ADD24RoundRect,0.250000X-0.850000X-0.350000X0.850000X-0.350000X0.850000X0.350000X-0.850000X0.350000X0*%
%TD*%
%TA.AperFunction,SMDPad,CuDef*%
%ADD25RoundRect,0.250000X-1.275000X-1.125000X1.275000X-1.125000X1.275000X1.125000X-1.275000X1.125000X0*%
%TD*%
%TA.AperFunction,SMDPad,CuDef*%
%ADD26RoundRect,0.249997X-2.950003X-2.650003X2.950003X-2.650003X2.950003X2.650003X-2.950003X2.650003X0*%
%TD*%
%TA.AperFunction,ComponentPad*%
%ADD27R,2.000000X2.000000*%
%TD*%
%TA.AperFunction,ComponentPad*%
%ADD28C,2.000000*%
%TD*%
%TA.AperFunction,ViaPad*%
%ADD29C,0.800000*%
%TD*%
%TA.AperFunction,Conductor*%
%ADD30C,0.250000*%
%TD*%
G04 APERTURE END LIST*
D10*
%TO.P,Q2,1,B*%
%TO.N,Net-(Q2-B)*%
X115250000Y-76532500D03*
%TO.P,Q2,2,E*%
%TO.N,+5V*%
X113350000Y-76532500D03*
%TO.P,Q2,3,C*%
%TO.N,Net-(Q2-C)*%
X114300000Y-78407500D03*
%TD*%
D11*
%TO.P,C3,1*%
%TO.N,3V3*%
X166624000Y-75389000D03*
%TO.P,C3,2*%
%TO.N,GND*%
X166624000Y-72439000D03*
%TD*%
%TO.P,C1,1*%
%TO.N,GND*%
X100838000Y-94693000D03*
%TO.P,C1,2*%
%TO.N,+5V*%
X100838000Y-91743000D03*
%TD*%
D10*
%TO.P,Q1,1,B*%
%TO.N,Net-(Q1-B)*%
X110424000Y-82628500D03*
%TO.P,Q1,2,E*%
%TO.N,GND*%
X108524000Y-82628500D03*
%TO.P,Q1,3,C*%
%TO.N,Net-(Q1-C)*%
X109474000Y-84503500D03*
%TD*%
D12*
%TO.P,C4,1*%
%TO.N,+5V*%
X172417000Y-94742000D03*
%TO.P,C4,2*%
%TO.N,GND*%
X169467000Y-94742000D03*
%TD*%
D13*
%TO.P,R4,1*%
%TO.N,Net-(Q2-C)*%
X114300000Y-80772000D03*
%TO.P,R4,2*%
%TO.N,GND*%
X114300000Y-83697000D03*
%TD*%
D14*
%TO.P,R5,1*%
%TO.N,3V3*%
X117979000Y-87376000D03*
%TO.P,R5,2*%
%TO.N,AUDIO_IN*%
X120904000Y-87376000D03*
%TD*%
D15*
%TO.P,R6,1*%
%TO.N,AUDIO_IN*%
X120904000Y-84582000D03*
%TO.P,R6,2*%
%TO.N,GND*%
X117979000Y-84582000D03*
%TD*%
D16*
%TO.P,J1,R*%
%TO.N,unconnected-(J1-PadR)*%
X103298000Y-102014000D03*
D17*
%TO.P,J1,RN*%
%TO.N,N/C*%
X103298000Y-104514000D03*
D18*
%TO.P,J1,S*%
%TO.N,GND*%
X98298000Y-107014000D03*
D16*
%TO.P,J1,T*%
%TO.N,Net-(Q3-D)*%
X103298000Y-112014000D03*
D19*
%TO.P,J1,TN*%
%TO.N,N/C*%
X103298000Y-109514000D03*
%TD*%
D20*
%TO.P,C2,1*%
%TO.N,GND*%
X114554000Y-85647000D03*
%TO.P,C2,2*%
%TO.N,+5V*%
X114554000Y-88597000D03*
%TD*%
D12*
%TO.P,C5,1*%
%TO.N,Net-(C5-Pad1)*%
X126415500Y-84582000D03*
%TO.P,C5,2*%
%TO.N,AUDIO_IN*%
X123465500Y-84582000D03*
%TD*%
D16*
%TO.P,J3,R*%
%TO.N,Net-(C5-Pad1)*%
X165862000Y-112014000D03*
D17*
%TO.P,J3,RN*%
%TO.N,N/C*%
X165862000Y-109514000D03*
D18*
%TO.P,J3,S*%
%TO.N,GND*%
X170862000Y-107014000D03*
D16*
%TO.P,J3,T*%
%TO.N,Net-(C5-Pad1)*%
X165862000Y-102014000D03*
D19*
%TO.P,J3,TN*%
%TO.N,N/C*%
X165862000Y-104514000D03*
%TD*%
D21*
%TO.P,R2,1*%
%TO.N,Net-(Q2-B)*%
X110744000Y-90108500D03*
%TO.P,R2,2*%
%TO.N,Net-(Q1-C)*%
X110744000Y-87183500D03*
%TD*%
D22*
%TO.P,J4,1,Pin_1*%
%TO.N,Net-(J4-Pin_1)*%
X112014000Y-108204000D03*
D23*
%TO.P,J4,2,Pin_2*%
%TO.N,GND*%
X112014000Y-110744000D03*
%TD*%
D24*
%TO.P,Q3,1,G*%
%TO.N,Net-(Q2-C)*%
X118771000Y-75951000D03*
%TO.P,Q3,2,D*%
%TO.N,Net-(Q3-D)*%
X118771000Y-78231000D03*
D25*
X123396000Y-76706000D03*
X123396000Y-79756000D03*
D26*
X125071000Y-78231000D03*
D25*
X126746000Y-76706000D03*
X126746000Y-79756000D03*
D24*
%TO.P,Q3,3,S*%
%TO.N,GND*%
X118771000Y-80511000D03*
%TD*%
D27*
%TO.P,LS1,1,1*%
%TO.N,Net-(Q2-C)*%
X155702000Y-88626000D03*
D28*
%TO.P,LS1,2,2*%
%TO.N,GND*%
X155702000Y-81026000D03*
%TD*%
D13*
%TO.P,R3,1*%
%TO.N,+5V*%
X106934000Y-87183500D03*
%TO.P,R3,2*%
%TO.N,Net-(Q2-B)*%
X106934000Y-90108500D03*
%TD*%
D27*
%TO.P,U1,1,3V3*%
%TO.N,3V3*%
X103378000Y-98298000D03*
D28*
%TO.P,U1,2,GND*%
%TO.N,GND*%
X105918000Y-98298000D03*
%TO.P,U1,3,D15*%
%TO.N,CS*%
X108458000Y-98298000D03*
%TO.P,U1,4,D2*%
%TO.N,DC*%
X110998000Y-98298000D03*
%TO.P,U1,5,D4*%
%TO.N,RST*%
X113538000Y-98298000D03*
%TO.P,U1,6,RX2*%
%TO.N,unconnected-(U1-RX2-Pad6)*%
X116078000Y-98298000D03*
%TO.P,U1,7,TX2*%
%TO.N,unconnected-(U1-TX2-Pad7)*%
X118618000Y-98298000D03*
%TO.P,U1,8,D5*%
%TO.N,unconnected-(U1-D5-Pad8)*%
X121158000Y-98298000D03*
%TO.P,U1,9,D18*%
%TO.N,SCK*%
X123698000Y-98298000D03*
%TO.P,U1,10,D19*%
%TO.N,MISO*%
X126238000Y-98298000D03*
%TO.P,U1,11,D21*%
%TO.N,unconnected-(U1-D21-Pad11)*%
X128778000Y-98298000D03*
%TO.P,U1,12,RX0*%
%TO.N,unconnected-(U1-RX0-Pad12)*%
X131318000Y-98298000D03*
%TO.P,U1,13,TX0*%
%TO.N,unconnected-(U1-TX0-Pad13)*%
X133858000Y-98298000D03*
%TO.P,U1,14,D22*%
%TO.N,unconnected-(U1-D22-Pad14)*%
X136398000Y-98298000D03*
%TO.P,U1,15,D23*%
%TO.N,MOSI*%
X138938000Y-98298000D03*
%TO.P,U1,16,EN*%
%TO.N,unconnected-(U1-EN-Pad16)*%
X138938000Y-72898000D03*
%TO.P,U1,17,VP*%
%TO.N,unconnected-(U1-VP-Pad17)*%
X136398000Y-72898000D03*
%TO.P,U1,18,VN*%
%TO.N,unconnected-(U1-VN-Pad18)*%
X133858000Y-72898000D03*
%TO.P,U1,19,D34*%
%TO.N,AUDIO_IN*%
X131318000Y-72898000D03*
%TO.P,U1,20,D35*%
%TO.N,unconnected-(U1-D35-Pad20)*%
X128778000Y-72898000D03*
%TO.P,U1,21,D32*%
%TO.N,unconnected-(U1-D32-Pad21)*%
X126238000Y-72898000D03*
%TO.P,U1,22,D33*%
%TO.N,unconnected-(U1-D33-Pad22)*%
X123698000Y-72898000D03*
%TO.P,U1,23,D25*%
%TO.N,unconnected-(U1-D25-Pad23)*%
X121158000Y-72898000D03*
%TO.P,U1,24,D26*%
%TO.N,unconnected-(U1-D26-Pad24)*%
X118618000Y-72898000D03*
%TO.P,U1,25,D27*%
%TO.N,unconnected-(U1-D27-Pad25)*%
X116078000Y-72898000D03*
%TO.P,U1,26,D14*%
%TO.N,unconnected-(U1-D14-Pad26)*%
X113538000Y-72898000D03*
%TO.P,U1,27,D12*%
%TO.N,unconnected-(U1-D12-Pad27)*%
X110998000Y-72898000D03*
%TO.P,U1,28,D13*%
%TO.N,Net-(U1-D13)*%
X108458000Y-72898000D03*
%TO.P,U1,29,GND*%
%TO.N,GND*%
X105918000Y-72898000D03*
%TO.P,U1,30,VIN*%
%TO.N,+5V*%
X103378000Y-72898000D03*
%TD*%
D22*
%TO.P,J2,1,Pin_1*%
%TO.N,3V3*%
X175514000Y-74676000D03*
D23*
%TO.P,J2,2,Pin_2*%
%TO.N,GND*%
X175514000Y-77216000D03*
%TO.P,J2,3,Pin_3*%
%TO.N,CS*%
X175514000Y-79756000D03*
%TO.P,J2,4,Pin_4*%
%TO.N,RST*%
X175514000Y-82296000D03*
%TO.P,J2,5,Pin_5*%
%TO.N,DC*%
X175514000Y-84836000D03*
%TO.P,J2,6,Pin_6*%
%TO.N,MOSI*%
X175514000Y-87376000D03*
%TO.P,J2,7,Pin_7*%
%TO.N,SCK*%
X175514000Y-89916000D03*
%TO.P,J2,8,Pin_8*%
%TO.N,+5V*%
X175514000Y-92456000D03*
%TO.P,J2,9,Pin_9*%
%TO.N,MISO*%
X175514000Y-94996000D03*
%TD*%
D21*
%TO.P,R1,1*%
%TO.N,Net-(Q1-B)*%
X108458000Y-79379000D03*
%TO.P,R1,2*%
%TO.N,Net-(U1-D13)*%
X108458000Y-76454000D03*
%TD*%
D29*
%TO.N,Net-(Q2-B)*%
X115316000Y-77978000D03*
%TO.N,GND*%
X105928200Y-75681800D03*
X100838000Y-96012000D03*
X166624000Y-71120000D03*
X116078000Y-85598000D03*
%TO.N,+5V*%
X162560000Y-75184000D03*
X146050000Y-99028500D03*
X172466000Y-92710000D03*
%TO.N,Net-(C5-Pad1)*%
X126238000Y-86360000D03*
X110436150Y-94180149D03*
%TO.N,AUDIO_IN*%
X123444000Y-82550000D03*
%TO.N,Net-(Q2-B)*%
X112522000Y-89408000D03*
%TO.N,Net-(Q2-C)*%
X136906000Y-76454000D03*
%TO.N,Net-(Q3-D)*%
X116840000Y-79502000D03*
X106934000Y-95758000D03*
%TD*%
D30*
%TO.N,+5V*%
X113350000Y-77658000D02*
X113350000Y-76532500D01*
X113030000Y-83069400D02*
X113030000Y-77978000D01*
X113030000Y-77978000D02*
X113350000Y-77658000D01*
X113100000Y-83139400D02*
X113030000Y-83069400D01*
X113100000Y-86585100D02*
X113100000Y-83139400D01*
%TO.N,Net-(Q2-B)*%
X115316000Y-77978000D02*
X115316000Y-76598500D01*
X115316000Y-76598500D02*
X115250000Y-76532500D01*
%TO.N,GND*%
X105928200Y-80032700D02*
X108524000Y-82628500D01*
X105928200Y-75681800D02*
X105928200Y-80032700D01*
%TO.N,Net-(Q1-B)*%
X110424000Y-81345000D02*
X110424000Y-82628500D01*
X108458000Y-79379000D02*
X110424000Y-81345000D01*
%TO.N,GND*%
X105918000Y-75671600D02*
X105928200Y-75681800D01*
X177139000Y-78841000D02*
X175514000Y-77216000D01*
X170692000Y-95967000D02*
X169887000Y-96772000D01*
X177139000Y-92492701D02*
X177139000Y-78841000D01*
X100838000Y-96012000D02*
X100838000Y-94693000D01*
X117979000Y-81303000D02*
X117979000Y-84582000D01*
X116078000Y-85598000D02*
X116963000Y-85598000D01*
X114300000Y-83697000D02*
X114300000Y-85393000D01*
X174339000Y-94742000D02*
X174339000Y-94509299D01*
X116078000Y-85598000D02*
X114603000Y-85598000D01*
X114300000Y-85393000D02*
X114554000Y-85647000D01*
X174339000Y-94509299D02*
X175122299Y-93726000D01*
X169887000Y-106039000D02*
X170862000Y-107014000D01*
X114603000Y-85598000D02*
X114554000Y-85647000D01*
X175122299Y-93726000D02*
X175905701Y-93726000D01*
X116963000Y-85598000D02*
X117979000Y-84582000D01*
X169467000Y-94742000D02*
X170692000Y-95967000D01*
X159512000Y-77216000D02*
X155702000Y-81026000D01*
X169887000Y-96772000D02*
X169887000Y-106039000D01*
X170692000Y-95967000D02*
X173114000Y-95967000D01*
X175514000Y-77216000D02*
X159512000Y-77216000D01*
X105918000Y-72898000D02*
X105918000Y-75671600D01*
X173114000Y-95967000D02*
X174339000Y-94742000D01*
X166624000Y-71120000D02*
X166624000Y-72439000D01*
X175905701Y-93726000D02*
X177139000Y-92492701D01*
X118771000Y-80511000D02*
X117979000Y-81303000D01*
%TO.N,+5V*%
X103378000Y-72898000D02*
X104783000Y-71493000D01*
X173228000Y-94742000D02*
X172417000Y-94742000D01*
X158869000Y-71493000D02*
X162560000Y-75184000D01*
X175514000Y-92456000D02*
X173228000Y-94742000D01*
X104783000Y-71493000D02*
X158869000Y-71493000D01*
X103378000Y-89203000D02*
X100838000Y-91743000D01*
X146050000Y-99028500D02*
X145002500Y-100076000D01*
X107821500Y-88071000D02*
X106934000Y-87183500D01*
X103378000Y-72898000D02*
X103378000Y-87122000D01*
X111614100Y-88071000D02*
X113100000Y-86585100D01*
X145002500Y-100076000D02*
X112014000Y-100076000D01*
X113100000Y-86585100D02*
X113100000Y-87143000D01*
X103439500Y-87183500D02*
X103378000Y-87122000D01*
X103378000Y-87122000D02*
X103378000Y-89203000D01*
X111614100Y-88071000D02*
X107821500Y-88071000D01*
X112014000Y-100076000D02*
X112014000Y-108204000D01*
X113100000Y-87143000D02*
X114554000Y-88597000D01*
X172417000Y-92759000D02*
X172466000Y-92710000D01*
X172417000Y-94742000D02*
X172417000Y-92759000D01*
%TO.N,Net-(Q2-B)*%
X115500000Y-76782500D02*
X115250000Y-76532500D01*
%TO.N,+5V*%
X106934000Y-87183500D02*
X103439500Y-87183500D01*
%TO.N,3V3*%
X137465000Y-94183000D02*
X137753000Y-93895000D01*
X111936604Y-94183000D02*
X137465000Y-94183000D01*
X166624000Y-75389000D02*
X166624000Y-76693000D01*
X173497000Y-76693000D02*
X175514000Y-74676000D01*
X166624000Y-76693000D02*
X173497000Y-76693000D01*
X109146604Y-96973000D02*
X111936604Y-94183000D01*
X137826222Y-76693000D02*
X166624000Y-76693000D01*
X103378000Y-98298000D02*
X104703000Y-96973000D01*
X111936604Y-94183000D02*
X111936604Y-93418396D01*
X137753000Y-93895000D02*
X137753000Y-76766222D01*
X137753000Y-76766222D02*
X137826222Y-76693000D01*
X104703000Y-96973000D02*
X109146604Y-96973000D01*
X111936604Y-93418396D02*
X117979000Y-87376000D01*
%TO.N,Net-(C5-Pad1)*%
X164937000Y-112939000D02*
X165862000Y-112014000D01*
X167437000Y-110439000D02*
X165862000Y-112014000D01*
X110436150Y-94180149D02*
X106223059Y-94180149D01*
X126415500Y-84582000D02*
X126415500Y-86182500D01*
X102251852Y-112776000D02*
X102414852Y-112939000D01*
X126415500Y-86182500D02*
X126238000Y-86360000D01*
X102065604Y-96324000D02*
X101092000Y-97297604D01*
X101346000Y-112776000D02*
X102251852Y-112776000D01*
X167437000Y-103589000D02*
X167437000Y-110439000D01*
X106223059Y-94180149D02*
X104079208Y-96324000D01*
X102414852Y-112939000D02*
X164937000Y-112939000D01*
X104079208Y-96324000D02*
X102065604Y-96324000D01*
X165862000Y-102014000D02*
X167437000Y-103589000D01*
X101092000Y-112522000D02*
X101346000Y-112776000D01*
X101092000Y-97297604D02*
X101092000Y-112522000D01*
%TO.N,AUDIO_IN*%
X120904000Y-84582000D02*
X123465500Y-84582000D01*
X120904000Y-87376000D02*
X120904000Y-84582000D01*
X123465500Y-82571500D02*
X123444000Y-82550000D01*
X123465500Y-84582000D02*
X123465500Y-82571500D01*
%TO.N,CS*%
X112123000Y-94633000D02*
X108458000Y-98298000D01*
X175514000Y-79756000D02*
X160637000Y-94633000D01*
X160637000Y-94633000D02*
X112123000Y-94633000D01*
%TO.N,RST*%
X165579000Y-95533000D02*
X175101000Y-86011000D01*
X176117000Y-86011000D02*
X176689000Y-85439000D01*
X175101000Y-86011000D02*
X176117000Y-86011000D01*
X176689000Y-83471000D02*
X175514000Y-82296000D01*
X116303000Y-95533000D02*
X165579000Y-95533000D01*
X113538000Y-98298000D02*
X116303000Y-95533000D01*
X176689000Y-85439000D02*
X176689000Y-83471000D01*
%TO.N,DC*%
X175514000Y-84836000D02*
X165267000Y-95083000D01*
X165267000Y-95083000D02*
X114213000Y-95083000D01*
X114213000Y-95083000D02*
X110998000Y-98298000D01*
%TO.N,SCK*%
X171958000Y-89916000D02*
X175514000Y-89916000D01*
X165871000Y-96003000D02*
X171958000Y-89916000D01*
X125993000Y-96003000D02*
X165871000Y-96003000D01*
X123698000Y-98298000D02*
X125993000Y-96003000D01*
%TO.N,Net-(Q1-C)*%
X109474000Y-85913500D02*
X110744000Y-87183500D01*
X109474000Y-84503500D02*
X109474000Y-85913500D01*
%TO.N,Net-(Q2-B)*%
X110744000Y-90108500D02*
X111821500Y-90108500D01*
X110744000Y-90108500D02*
X106934000Y-90108500D01*
X111821500Y-90108500D02*
X112522000Y-89408000D01*
%TO.N,Net-(Q2-C)*%
X119716000Y-75006000D02*
X135458000Y-75006000D01*
X118258000Y-75438000D02*
X118771000Y-75951000D01*
X114300000Y-78407500D02*
X114300000Y-80772000D01*
X118771000Y-75951000D02*
X119716000Y-75006000D01*
X135458000Y-75006000D02*
X136906000Y-76454000D01*
X114300000Y-78407500D02*
X114300000Y-76069092D01*
X114931092Y-75438000D02*
X118258000Y-75438000D01*
X114300000Y-76069092D02*
X114931092Y-75438000D01*
%TO.N,Net-(Q3-D)*%
X101600000Y-110316000D02*
X103298000Y-112014000D01*
X118111000Y-78231000D02*
X116840000Y-79502000D01*
X121871000Y-78231000D02*
X123396000Y-76706000D01*
X104265604Y-96774000D02*
X102252000Y-96774000D01*
X106934000Y-96523000D02*
X104516604Y-96523000D01*
X104516604Y-96523000D02*
X104265604Y-96774000D01*
X101600000Y-97426000D02*
X101600000Y-110316000D01*
X118771000Y-78231000D02*
X121871000Y-78231000D01*
X102252000Y-96774000D02*
X101600000Y-97426000D01*
X106934000Y-95758000D02*
X106934000Y-96523000D01*
X118771000Y-78231000D02*
X118111000Y-78231000D01*
%TO.N,Net-(U1-D13)*%
X108458000Y-72898000D02*
X108458000Y-76454000D01*
%TD*%
M02*
