%TF.GenerationSoftware,KiCad,Pcbnew,7.0.9*%
%TF.CreationDate,2024-12-25T11:05:57-08:00*%
%TF.ProjectId,ESP32btCWKeyBrd_Kicad Files,45535033-3262-4744-9357-4b6579427264,rev?*%
%TF.SameCoordinates,Original*%
%TF.FileFunction,Copper,L2,Bot*%
%TF.FilePolarity,Positive*%
%FSLAX46Y46*%
G04 Gerber Fmt 4.6, Leading zero omitted, Abs format (unit mm)*
G04 Created by KiCad (PCBNEW 7.0.9) date 2024-12-25 11:05:57*
%MOMM*%
%LPD*%
G01*
G04 APERTURE LIST*
%TA.AperFunction,ComponentPad*%
%ADD10O,2.200000X1.200000*%
%TD*%
%TA.AperFunction,ComponentPad*%
%ADD11O,2.300000X1.600000*%
%TD*%
%TA.AperFunction,ComponentPad*%
%ADD12O,1.200000X2.200000*%
%TD*%
%TA.AperFunction,ComponentPad*%
%ADD13O,2.500000X1.600000*%
%TD*%
%TA.AperFunction,ComponentPad*%
%ADD14R,1.700000X1.700000*%
%TD*%
%TA.AperFunction,ComponentPad*%
%ADD15O,1.700000X1.700000*%
%TD*%
%TA.AperFunction,ComponentPad*%
%ADD16R,2.000000X2.000000*%
%TD*%
%TA.AperFunction,ComponentPad*%
%ADD17C,2.000000*%
%TD*%
%TA.AperFunction,ViaPad*%
%ADD18C,0.800000*%
%TD*%
%TA.AperFunction,Conductor*%
%ADD19C,0.250000*%
%TD*%
G04 APERTURE END LIST*
D10*
%TO.P,J1,R*%
%TO.N,unconnected-(J1-PadR)*%
X103298000Y-102014000D03*
D11*
%TO.P,J1,RN*%
%TO.N,N/C*%
X103298000Y-104514000D03*
D12*
%TO.P,J1,S*%
%TO.N,GND*%
X98298000Y-107014000D03*
D10*
%TO.P,J1,T*%
%TO.N,Net-(Q3-D)*%
X103298000Y-112014000D03*
D13*
%TO.P,J1,TN*%
%TO.N,N/C*%
X103298000Y-109514000D03*
%TD*%
D10*
%TO.P,J3,R*%
%TO.N,Net-(C5-Pad1)*%
X165862000Y-112014000D03*
D11*
%TO.P,J3,RN*%
%TO.N,N/C*%
X165862000Y-109514000D03*
D12*
%TO.P,J3,S*%
%TO.N,GND*%
X170862000Y-107014000D03*
D10*
%TO.P,J3,T*%
%TO.N,Net-(C5-Pad1)*%
X165862000Y-102014000D03*
D13*
%TO.P,J3,TN*%
%TO.N,N/C*%
X165862000Y-104514000D03*
%TD*%
D14*
%TO.P,J4,1,Pin_1*%
%TO.N,Net-(J4-Pin_1)*%
X112014000Y-108204000D03*
D15*
%TO.P,J4,2,Pin_2*%
%TO.N,GND*%
X112014000Y-110744000D03*
%TD*%
D16*
%TO.P,LS1,1,1*%
%TO.N,Net-(Q2-C)*%
X155702000Y-88626000D03*
D17*
%TO.P,LS1,2,2*%
%TO.N,GND*%
X155702000Y-81026000D03*
%TD*%
D16*
%TO.P,U1,1,3V3*%
%TO.N,3V3*%
X103378000Y-98298000D03*
D17*
%TO.P,U1,2,GND*%
%TO.N,GND*%
X105918000Y-98298000D03*
%TO.P,U1,3,D15*%
%TO.N,CS*%
X108458000Y-98298000D03*
%TO.P,U1,4,D2*%
%TO.N,DC*%
X110998000Y-98298000D03*
%TO.P,U1,5,D4*%
%TO.N,RST*%
X113538000Y-98298000D03*
%TO.P,U1,6,RX2*%
%TO.N,unconnected-(U1-RX2-Pad6)*%
X116078000Y-98298000D03*
%TO.P,U1,7,TX2*%
%TO.N,unconnected-(U1-TX2-Pad7)*%
X118618000Y-98298000D03*
%TO.P,U1,8,D5*%
%TO.N,unconnected-(U1-D5-Pad8)*%
X121158000Y-98298000D03*
%TO.P,U1,9,D18*%
%TO.N,SCK*%
X123698000Y-98298000D03*
%TO.P,U1,10,D19*%
%TO.N,MISO*%
X126238000Y-98298000D03*
%TO.P,U1,11,D21*%
%TO.N,unconnected-(U1-D21-Pad11)*%
X128778000Y-98298000D03*
%TO.P,U1,12,RX0*%
%TO.N,unconnected-(U1-RX0-Pad12)*%
X131318000Y-98298000D03*
%TO.P,U1,13,TX0*%
%TO.N,unconnected-(U1-TX0-Pad13)*%
X133858000Y-98298000D03*
%TO.P,U1,14,D22*%
%TO.N,unconnected-(U1-D22-Pad14)*%
X136398000Y-98298000D03*
%TO.P,U1,15,D23*%
%TO.N,MOSI*%
X138938000Y-98298000D03*
%TO.P,U1,16,EN*%
%TO.N,unconnected-(U1-EN-Pad16)*%
X138938000Y-72898000D03*
%TO.P,U1,17,VP*%
%TO.N,unconnected-(U1-VP-Pad17)*%
X136398000Y-72898000D03*
%TO.P,U1,18,VN*%
%TO.N,unconnected-(U1-VN-Pad18)*%
X133858000Y-72898000D03*
%TO.P,U1,19,D34*%
%TO.N,AUDIO_IN*%
X131318000Y-72898000D03*
%TO.P,U1,20,D35*%
%TO.N,unconnected-(U1-D35-Pad20)*%
X128778000Y-72898000D03*
%TO.P,U1,21,D32*%
%TO.N,unconnected-(U1-D32-Pad21)*%
X126238000Y-72898000D03*
%TO.P,U1,22,D33*%
%TO.N,unconnected-(U1-D33-Pad22)*%
X123698000Y-72898000D03*
%TO.P,U1,23,D25*%
%TO.N,unconnected-(U1-D25-Pad23)*%
X121158000Y-72898000D03*
%TO.P,U1,24,D26*%
%TO.N,unconnected-(U1-D26-Pad24)*%
X118618000Y-72898000D03*
%TO.P,U1,25,D27*%
%TO.N,unconnected-(U1-D27-Pad25)*%
X116078000Y-72898000D03*
%TO.P,U1,26,D14*%
%TO.N,unconnected-(U1-D14-Pad26)*%
X113538000Y-72898000D03*
%TO.P,U1,27,D12*%
%TO.N,unconnected-(U1-D12-Pad27)*%
X110998000Y-72898000D03*
%TO.P,U1,28,D13*%
%TO.N,Net-(U1-D13)*%
X108458000Y-72898000D03*
%TO.P,U1,29,GND*%
%TO.N,GND*%
X105918000Y-72898000D03*
%TO.P,U1,30,VIN*%
%TO.N,+5V*%
X103378000Y-72898000D03*
%TD*%
D14*
%TO.P,J2,1,Pin_1*%
%TO.N,3V3*%
X175514000Y-74676000D03*
D15*
%TO.P,J2,2,Pin_2*%
%TO.N,GND*%
X175514000Y-77216000D03*
%TO.P,J2,3,Pin_3*%
%TO.N,CS*%
X175514000Y-79756000D03*
%TO.P,J2,4,Pin_4*%
%TO.N,RST*%
X175514000Y-82296000D03*
%TO.P,J2,5,Pin_5*%
%TO.N,DC*%
X175514000Y-84836000D03*
%TO.P,J2,6,Pin_6*%
%TO.N,MOSI*%
X175514000Y-87376000D03*
%TO.P,J2,7,Pin_7*%
%TO.N,SCK*%
X175514000Y-89916000D03*
%TO.P,J2,8,Pin_8*%
%TO.N,+5V*%
X175514000Y-92456000D03*
%TO.P,J2,9,Pin_9*%
%TO.N,MISO*%
X175514000Y-94996000D03*
%TD*%
D18*
%TO.N,Net-(Q2-B)*%
X115316000Y-77978000D03*
%TO.N,GND*%
X105928200Y-75681800D03*
X100838000Y-96012000D03*
X166624000Y-71120000D03*
X116078000Y-85598000D03*
%TO.N,+5V*%
X162560000Y-75184000D03*
X146050000Y-99028500D03*
X172466000Y-92710000D03*
%TO.N,Net-(C5-Pad1)*%
X126238000Y-86360000D03*
X110436150Y-94180149D03*
%TO.N,AUDIO_IN*%
X123444000Y-82550000D03*
%TO.N,Net-(Q2-B)*%
X112522000Y-89408000D03*
%TO.N,Net-(Q2-C)*%
X136906000Y-76454000D03*
%TO.N,Net-(Q3-D)*%
X116840000Y-79502000D03*
X106934000Y-95758000D03*
%TD*%
D19*
%TO.N,Net-(Q2-B)*%
X112522000Y-80772000D02*
X115316000Y-77978000D01*
X112522000Y-89408000D02*
X112522000Y-80772000D01*
%TO.N,GND*%
X105156000Y-96012000D02*
X100838000Y-96012000D01*
X168910000Y-70612000D02*
X167132000Y-70612000D01*
X99273000Y-107989000D02*
X104863000Y-107989000D01*
X166116000Y-70612000D02*
X108204000Y-70612000D01*
X108204000Y-70612000D02*
X105918000Y-72898000D01*
X167132000Y-70612000D02*
X166624000Y-71120000D01*
X105918000Y-96774000D02*
X105156000Y-96012000D01*
X105918000Y-106680000D02*
X105918000Y-106934000D01*
X104863000Y-107989000D02*
X105918000Y-106934000D01*
X108712000Y-110744000D02*
X105918000Y-107950000D01*
X175514000Y-77216000D02*
X168910000Y-70612000D01*
X111903507Y-91440000D02*
X116078000Y-87265507D01*
X105918000Y-107950000D02*
X105918000Y-106680000D01*
X105918000Y-98298000D02*
X105918000Y-96774000D01*
X98298000Y-107014000D02*
X99273000Y-107989000D01*
X105156000Y-96012000D02*
X105156000Y-91440000D01*
X112014000Y-110744000D02*
X108712000Y-110744000D01*
X105156000Y-91440000D02*
X105156000Y-76454000D01*
X105918000Y-98298000D02*
X105918000Y-106680000D01*
X116078000Y-87265507D02*
X116078000Y-85598000D01*
X166624000Y-71120000D02*
X166116000Y-70612000D01*
X105156000Y-76454000D02*
X105928200Y-75681800D01*
X105156000Y-91440000D02*
X111903507Y-91440000D01*
%TO.N,+5V*%
X169546396Y-92710000D02*
X163227896Y-99028500D01*
X162560000Y-75184000D02*
X173577000Y-86201000D01*
X173577000Y-86201000D02*
X176000701Y-86201000D01*
X176000701Y-86201000D02*
X176689000Y-86889299D01*
X176689000Y-91281000D02*
X175514000Y-92456000D01*
X176689000Y-86889299D02*
X176689000Y-91281000D01*
X172466000Y-92710000D02*
X169546396Y-92710000D01*
X163227896Y-99028500D02*
X146050000Y-99028500D01*
%TO.N,Net-(C5-Pad1)*%
X126238000Y-86360000D02*
X118256299Y-86360000D01*
X118256299Y-86360000D02*
X110436150Y-94180149D01*
%TO.N,AUDIO_IN*%
X123444000Y-82550000D02*
X131318000Y-74676000D01*
X131318000Y-74676000D02*
X131318000Y-72898000D01*
%TO.N,MOSI*%
X165862000Y-95758000D02*
X174244000Y-87376000D01*
X138938000Y-98298000D02*
X141478000Y-95758000D01*
X174244000Y-87376000D02*
X175514000Y-87376000D01*
X141478000Y-95758000D02*
X165862000Y-95758000D01*
%TO.N,MISO*%
X127693000Y-99753000D02*
X170757000Y-99753000D01*
X126238000Y-98298000D02*
X127693000Y-99753000D01*
X170757000Y-99753000D02*
X175514000Y-94996000D01*
%TO.N,Net-(Q2-C)*%
X136906000Y-76454000D02*
X144180778Y-76454000D01*
X144180778Y-76454000D02*
X155702000Y-87975222D01*
X155702000Y-87975222D02*
X155702000Y-88626000D01*
%TO.N,Net-(Q3-D)*%
X110524754Y-93455149D02*
X109236851Y-93455149D01*
X116803000Y-79465000D02*
X116803000Y-87176903D01*
X116840000Y-79502000D02*
X116803000Y-79465000D01*
X109236851Y-93455149D02*
X106934000Y-95758000D01*
X116803000Y-87176903D02*
X110524754Y-93455149D01*
%TD*%
M02*
