%TF.GenerationSoftware,KiCad,Pcbnew,7.0.9*%
%TF.CreationDate,2024-12-25T11:05:57-08:00*%
%TF.ProjectId,ESP32btCWKeyBrd_Kicad Files,45535033-3262-4744-9357-4b6579427264,rev?*%
%TF.SameCoordinates,Original*%
%TF.FileFunction,Legend,Top*%
%TF.FilePolarity,Positive*%
%FSLAX46Y46*%
G04 Gerber Fmt 4.6, Leading zero omitted, Abs format (unit mm)*
G04 Created by KiCad (PCBNEW 7.0.9) date 2024-12-25 11:05:57*
%MOMM*%
%LPD*%
G01*
G04 APERTURE LIST*
%ADD10C,0.150000*%
%ADD11C,0.300000*%
%ADD12C,0.120000*%
%ADD13C,0.127000*%
%ADD14C,0.200000*%
G04 APERTURE END LIST*
D10*
X170977160Y-90500200D02*
X171120017Y-90547819D01*
X171120017Y-90547819D02*
X171358112Y-90547819D01*
X171358112Y-90547819D02*
X171453350Y-90500200D01*
X171453350Y-90500200D02*
X171500969Y-90452580D01*
X171500969Y-90452580D02*
X171548588Y-90357342D01*
X171548588Y-90357342D02*
X171548588Y-90262104D01*
X171548588Y-90262104D02*
X171500969Y-90166866D01*
X171500969Y-90166866D02*
X171453350Y-90119247D01*
X171453350Y-90119247D02*
X171358112Y-90071628D01*
X171358112Y-90071628D02*
X171167636Y-90024009D01*
X171167636Y-90024009D02*
X171072398Y-89976390D01*
X171072398Y-89976390D02*
X171024779Y-89928771D01*
X171024779Y-89928771D02*
X170977160Y-89833533D01*
X170977160Y-89833533D02*
X170977160Y-89738295D01*
X170977160Y-89738295D02*
X171024779Y-89643057D01*
X171024779Y-89643057D02*
X171072398Y-89595438D01*
X171072398Y-89595438D02*
X171167636Y-89547819D01*
X171167636Y-89547819D02*
X171405731Y-89547819D01*
X171405731Y-89547819D02*
X171548588Y-89595438D01*
X172548588Y-90452580D02*
X172500969Y-90500200D01*
X172500969Y-90500200D02*
X172358112Y-90547819D01*
X172358112Y-90547819D02*
X172262874Y-90547819D01*
X172262874Y-90547819D02*
X172120017Y-90500200D01*
X172120017Y-90500200D02*
X172024779Y-90404961D01*
X172024779Y-90404961D02*
X171977160Y-90309723D01*
X171977160Y-90309723D02*
X171929541Y-90119247D01*
X171929541Y-90119247D02*
X171929541Y-89976390D01*
X171929541Y-89976390D02*
X171977160Y-89785914D01*
X171977160Y-89785914D02*
X172024779Y-89690676D01*
X172024779Y-89690676D02*
X172120017Y-89595438D01*
X172120017Y-89595438D02*
X172262874Y-89547819D01*
X172262874Y-89547819D02*
X172358112Y-89547819D01*
X172358112Y-89547819D02*
X172500969Y-89595438D01*
X172500969Y-89595438D02*
X172548588Y-89643057D01*
X172977160Y-90547819D02*
X172977160Y-89547819D01*
X173548588Y-90547819D02*
X173120017Y-89976390D01*
X173548588Y-89547819D02*
X172977160Y-90119247D01*
X172612207Y-80292580D02*
X172564588Y-80340200D01*
X172564588Y-80340200D02*
X172421731Y-80387819D01*
X172421731Y-80387819D02*
X172326493Y-80387819D01*
X172326493Y-80387819D02*
X172183636Y-80340200D01*
X172183636Y-80340200D02*
X172088398Y-80244961D01*
X172088398Y-80244961D02*
X172040779Y-80149723D01*
X172040779Y-80149723D02*
X171993160Y-79959247D01*
X171993160Y-79959247D02*
X171993160Y-79816390D01*
X171993160Y-79816390D02*
X172040779Y-79625914D01*
X172040779Y-79625914D02*
X172088398Y-79530676D01*
X172088398Y-79530676D02*
X172183636Y-79435438D01*
X172183636Y-79435438D02*
X172326493Y-79387819D01*
X172326493Y-79387819D02*
X172421731Y-79387819D01*
X172421731Y-79387819D02*
X172564588Y-79435438D01*
X172564588Y-79435438D02*
X172612207Y-79483057D01*
X172993160Y-80340200D02*
X173136017Y-80387819D01*
X173136017Y-80387819D02*
X173374112Y-80387819D01*
X173374112Y-80387819D02*
X173469350Y-80340200D01*
X173469350Y-80340200D02*
X173516969Y-80292580D01*
X173516969Y-80292580D02*
X173564588Y-80197342D01*
X173564588Y-80197342D02*
X173564588Y-80102104D01*
X173564588Y-80102104D02*
X173516969Y-80006866D01*
X173516969Y-80006866D02*
X173469350Y-79959247D01*
X173469350Y-79959247D02*
X173374112Y-79911628D01*
X173374112Y-79911628D02*
X173183636Y-79864009D01*
X173183636Y-79864009D02*
X173088398Y-79816390D01*
X173088398Y-79816390D02*
X173040779Y-79768771D01*
X173040779Y-79768771D02*
X172993160Y-79673533D01*
X172993160Y-79673533D02*
X172993160Y-79578295D01*
X172993160Y-79578295D02*
X173040779Y-79483057D01*
X173040779Y-79483057D02*
X173088398Y-79435438D01*
X173088398Y-79435438D02*
X173183636Y-79387819D01*
X173183636Y-79387819D02*
X173421731Y-79387819D01*
X173421731Y-79387819D02*
X173564588Y-79435438D01*
D11*
X114092510Y-108449400D02*
X115235368Y-108449400D01*
X114663939Y-109020828D02*
X114663939Y-107877971D01*
X116663939Y-107520828D02*
X115949653Y-107520828D01*
X115949653Y-107520828D02*
X115878225Y-108235114D01*
X115878225Y-108235114D02*
X115949653Y-108163685D01*
X115949653Y-108163685D02*
X116092511Y-108092257D01*
X116092511Y-108092257D02*
X116449653Y-108092257D01*
X116449653Y-108092257D02*
X116592511Y-108163685D01*
X116592511Y-108163685D02*
X116663939Y-108235114D01*
X116663939Y-108235114D02*
X116735368Y-108377971D01*
X116735368Y-108377971D02*
X116735368Y-108735114D01*
X116735368Y-108735114D02*
X116663939Y-108877971D01*
X116663939Y-108877971D02*
X116592511Y-108949400D01*
X116592511Y-108949400D02*
X116449653Y-109020828D01*
X116449653Y-109020828D02*
X116092511Y-109020828D01*
X116092511Y-109020828D02*
X115949653Y-108949400D01*
X115949653Y-108949400D02*
X115878225Y-108877971D01*
X117163939Y-107520828D02*
X117663939Y-109020828D01*
X117663939Y-109020828D02*
X118163939Y-107520828D01*
D10*
X161705895Y-104683160D02*
X161705895Y-105159350D01*
X161420180Y-104587922D02*
X162420180Y-104921255D01*
X162420180Y-104921255D02*
X161420180Y-105254588D01*
X162420180Y-105587922D02*
X161610657Y-105587922D01*
X161610657Y-105587922D02*
X161515419Y-105635541D01*
X161515419Y-105635541D02*
X161467800Y-105683160D01*
X161467800Y-105683160D02*
X161420180Y-105778398D01*
X161420180Y-105778398D02*
X161420180Y-105968874D01*
X161420180Y-105968874D02*
X161467800Y-106064112D01*
X161467800Y-106064112D02*
X161515419Y-106111731D01*
X161515419Y-106111731D02*
X161610657Y-106159350D01*
X161610657Y-106159350D02*
X162420180Y-106159350D01*
X161420180Y-106635541D02*
X162420180Y-106635541D01*
X162420180Y-106635541D02*
X162420180Y-106873636D01*
X162420180Y-106873636D02*
X162372561Y-107016493D01*
X162372561Y-107016493D02*
X162277323Y-107111731D01*
X162277323Y-107111731D02*
X162182085Y-107159350D01*
X162182085Y-107159350D02*
X161991609Y-107206969D01*
X161991609Y-107206969D02*
X161848752Y-107206969D01*
X161848752Y-107206969D02*
X161658276Y-107159350D01*
X161658276Y-107159350D02*
X161563038Y-107111731D01*
X161563038Y-107111731D02*
X161467800Y-107016493D01*
X161467800Y-107016493D02*
X161420180Y-106873636D01*
X161420180Y-106873636D02*
X161420180Y-106635541D01*
X161420180Y-107635541D02*
X162420180Y-107635541D01*
X162420180Y-108302207D02*
X162420180Y-108492683D01*
X162420180Y-108492683D02*
X162372561Y-108587921D01*
X162372561Y-108587921D02*
X162277323Y-108683159D01*
X162277323Y-108683159D02*
X162086847Y-108730778D01*
X162086847Y-108730778D02*
X161753514Y-108730778D01*
X161753514Y-108730778D02*
X161563038Y-108683159D01*
X161563038Y-108683159D02*
X161467800Y-108587921D01*
X161467800Y-108587921D02*
X161420180Y-108492683D01*
X161420180Y-108492683D02*
X161420180Y-108302207D01*
X161420180Y-108302207D02*
X161467800Y-108206969D01*
X161467800Y-108206969D02*
X161563038Y-108111731D01*
X161563038Y-108111731D02*
X161753514Y-108064112D01*
X161753514Y-108064112D02*
X162086847Y-108064112D01*
X162086847Y-108064112D02*
X162277323Y-108111731D01*
X162277323Y-108111731D02*
X162372561Y-108206969D01*
X162372561Y-108206969D02*
X162420180Y-108302207D01*
X161420180Y-109921255D02*
X162420180Y-109921255D01*
X161420180Y-110397445D02*
X162420180Y-110397445D01*
X162420180Y-110397445D02*
X161420180Y-110968873D01*
X161420180Y-110968873D02*
X162420180Y-110968873D01*
D11*
X129586510Y-102768114D02*
X130086510Y-102768114D01*
X130300796Y-103553828D02*
X129586510Y-103553828D01*
X129586510Y-103553828D02*
X129586510Y-102053828D01*
X129586510Y-102053828D02*
X130300796Y-102053828D01*
X130872225Y-103482400D02*
X131086511Y-103553828D01*
X131086511Y-103553828D02*
X131443653Y-103553828D01*
X131443653Y-103553828D02*
X131586511Y-103482400D01*
X131586511Y-103482400D02*
X131657939Y-103410971D01*
X131657939Y-103410971D02*
X131729368Y-103268114D01*
X131729368Y-103268114D02*
X131729368Y-103125257D01*
X131729368Y-103125257D02*
X131657939Y-102982400D01*
X131657939Y-102982400D02*
X131586511Y-102910971D01*
X131586511Y-102910971D02*
X131443653Y-102839542D01*
X131443653Y-102839542D02*
X131157939Y-102768114D01*
X131157939Y-102768114D02*
X131015082Y-102696685D01*
X131015082Y-102696685D02*
X130943653Y-102625257D01*
X130943653Y-102625257D02*
X130872225Y-102482400D01*
X130872225Y-102482400D02*
X130872225Y-102339542D01*
X130872225Y-102339542D02*
X130943653Y-102196685D01*
X130943653Y-102196685D02*
X131015082Y-102125257D01*
X131015082Y-102125257D02*
X131157939Y-102053828D01*
X131157939Y-102053828D02*
X131515082Y-102053828D01*
X131515082Y-102053828D02*
X131729368Y-102125257D01*
X132372224Y-103553828D02*
X132372224Y-102053828D01*
X132372224Y-102053828D02*
X132943653Y-102053828D01*
X132943653Y-102053828D02*
X133086510Y-102125257D01*
X133086510Y-102125257D02*
X133157939Y-102196685D01*
X133157939Y-102196685D02*
X133229367Y-102339542D01*
X133229367Y-102339542D02*
X133229367Y-102553828D01*
X133229367Y-102553828D02*
X133157939Y-102696685D01*
X133157939Y-102696685D02*
X133086510Y-102768114D01*
X133086510Y-102768114D02*
X132943653Y-102839542D01*
X132943653Y-102839542D02*
X132372224Y-102839542D01*
X133729367Y-102053828D02*
X134657939Y-102053828D01*
X134657939Y-102053828D02*
X134157939Y-102625257D01*
X134157939Y-102625257D02*
X134372224Y-102625257D01*
X134372224Y-102625257D02*
X134515082Y-102696685D01*
X134515082Y-102696685D02*
X134586510Y-102768114D01*
X134586510Y-102768114D02*
X134657939Y-102910971D01*
X134657939Y-102910971D02*
X134657939Y-103268114D01*
X134657939Y-103268114D02*
X134586510Y-103410971D01*
X134586510Y-103410971D02*
X134515082Y-103482400D01*
X134515082Y-103482400D02*
X134372224Y-103553828D01*
X134372224Y-103553828D02*
X133943653Y-103553828D01*
X133943653Y-103553828D02*
X133800796Y-103482400D01*
X133800796Y-103482400D02*
X133729367Y-103410971D01*
X135229367Y-102196685D02*
X135300795Y-102125257D01*
X135300795Y-102125257D02*
X135443653Y-102053828D01*
X135443653Y-102053828D02*
X135800795Y-102053828D01*
X135800795Y-102053828D02*
X135943653Y-102125257D01*
X135943653Y-102125257D02*
X136015081Y-102196685D01*
X136015081Y-102196685D02*
X136086510Y-102339542D01*
X136086510Y-102339542D02*
X136086510Y-102482400D01*
X136086510Y-102482400D02*
X136015081Y-102696685D01*
X136015081Y-102696685D02*
X135157938Y-103553828D01*
X135157938Y-103553828D02*
X136086510Y-103553828D01*
X136729366Y-103553828D02*
X136729366Y-102053828D01*
X136729366Y-102625257D02*
X136872224Y-102553828D01*
X136872224Y-102553828D02*
X137157938Y-102553828D01*
X137157938Y-102553828D02*
X137300795Y-102625257D01*
X137300795Y-102625257D02*
X137372224Y-102696685D01*
X137372224Y-102696685D02*
X137443652Y-102839542D01*
X137443652Y-102839542D02*
X137443652Y-103268114D01*
X137443652Y-103268114D02*
X137372224Y-103410971D01*
X137372224Y-103410971D02*
X137300795Y-103482400D01*
X137300795Y-103482400D02*
X137157938Y-103553828D01*
X137157938Y-103553828D02*
X136872224Y-103553828D01*
X136872224Y-103553828D02*
X136729366Y-103482400D01*
X137872224Y-102553828D02*
X138443652Y-102553828D01*
X138086509Y-102053828D02*
X138086509Y-103339542D01*
X138086509Y-103339542D02*
X138157938Y-103482400D01*
X138157938Y-103482400D02*
X138300795Y-103553828D01*
X138300795Y-103553828D02*
X138443652Y-103553828D01*
X139800795Y-103410971D02*
X139729367Y-103482400D01*
X139729367Y-103482400D02*
X139515081Y-103553828D01*
X139515081Y-103553828D02*
X139372224Y-103553828D01*
X139372224Y-103553828D02*
X139157938Y-103482400D01*
X139157938Y-103482400D02*
X139015081Y-103339542D01*
X139015081Y-103339542D02*
X138943652Y-103196685D01*
X138943652Y-103196685D02*
X138872224Y-102910971D01*
X138872224Y-102910971D02*
X138872224Y-102696685D01*
X138872224Y-102696685D02*
X138943652Y-102410971D01*
X138943652Y-102410971D02*
X139015081Y-102268114D01*
X139015081Y-102268114D02*
X139157938Y-102125257D01*
X139157938Y-102125257D02*
X139372224Y-102053828D01*
X139372224Y-102053828D02*
X139515081Y-102053828D01*
X139515081Y-102053828D02*
X139729367Y-102125257D01*
X139729367Y-102125257D02*
X139800795Y-102196685D01*
X140300795Y-102053828D02*
X140657938Y-103553828D01*
X140657938Y-103553828D02*
X140943652Y-102482400D01*
X140943652Y-102482400D02*
X141229367Y-103553828D01*
X141229367Y-103553828D02*
X141586510Y-102053828D01*
X142157938Y-103553828D02*
X142157938Y-102053828D01*
X143015081Y-103553828D02*
X142372224Y-102696685D01*
X143015081Y-102053828D02*
X142157938Y-102910971D01*
X144229367Y-103482400D02*
X144086510Y-103553828D01*
X144086510Y-103553828D02*
X143800796Y-103553828D01*
X143800796Y-103553828D02*
X143657938Y-103482400D01*
X143657938Y-103482400D02*
X143586510Y-103339542D01*
X143586510Y-103339542D02*
X143586510Y-102768114D01*
X143586510Y-102768114D02*
X143657938Y-102625257D01*
X143657938Y-102625257D02*
X143800796Y-102553828D01*
X143800796Y-102553828D02*
X144086510Y-102553828D01*
X144086510Y-102553828D02*
X144229367Y-102625257D01*
X144229367Y-102625257D02*
X144300796Y-102768114D01*
X144300796Y-102768114D02*
X144300796Y-102910971D01*
X144300796Y-102910971D02*
X143586510Y-103053828D01*
X144800795Y-102553828D02*
X145157938Y-103553828D01*
X145515081Y-102553828D02*
X145157938Y-103553828D01*
X145157938Y-103553828D02*
X145015081Y-103910971D01*
X145015081Y-103910971D02*
X144943652Y-103982400D01*
X144943652Y-103982400D02*
X144800795Y-104053828D01*
X146586509Y-102768114D02*
X146800795Y-102839542D01*
X146800795Y-102839542D02*
X146872224Y-102910971D01*
X146872224Y-102910971D02*
X146943652Y-103053828D01*
X146943652Y-103053828D02*
X146943652Y-103268114D01*
X146943652Y-103268114D02*
X146872224Y-103410971D01*
X146872224Y-103410971D02*
X146800795Y-103482400D01*
X146800795Y-103482400D02*
X146657938Y-103553828D01*
X146657938Y-103553828D02*
X146086509Y-103553828D01*
X146086509Y-103553828D02*
X146086509Y-102053828D01*
X146086509Y-102053828D02*
X146586509Y-102053828D01*
X146586509Y-102053828D02*
X146729367Y-102125257D01*
X146729367Y-102125257D02*
X146800795Y-102196685D01*
X146800795Y-102196685D02*
X146872224Y-102339542D01*
X146872224Y-102339542D02*
X146872224Y-102482400D01*
X146872224Y-102482400D02*
X146800795Y-102625257D01*
X146800795Y-102625257D02*
X146729367Y-102696685D01*
X146729367Y-102696685D02*
X146586509Y-102768114D01*
X146586509Y-102768114D02*
X146086509Y-102768114D01*
X147586509Y-103553828D02*
X147586509Y-102553828D01*
X147586509Y-102839542D02*
X147657938Y-102696685D01*
X147657938Y-102696685D02*
X147729367Y-102625257D01*
X147729367Y-102625257D02*
X147872224Y-102553828D01*
X147872224Y-102553828D02*
X148015081Y-102553828D01*
X149157938Y-103553828D02*
X149157938Y-102053828D01*
X149157938Y-103482400D02*
X149015080Y-103553828D01*
X149015080Y-103553828D02*
X148729366Y-103553828D01*
X148729366Y-103553828D02*
X148586509Y-103482400D01*
X148586509Y-103482400D02*
X148515080Y-103410971D01*
X148515080Y-103410971D02*
X148443652Y-103268114D01*
X148443652Y-103268114D02*
X148443652Y-102839542D01*
X148443652Y-102839542D02*
X148515080Y-102696685D01*
X148515080Y-102696685D02*
X148586509Y-102625257D01*
X148586509Y-102625257D02*
X148729366Y-102553828D01*
X148729366Y-102553828D02*
X149015080Y-102553828D01*
X149015080Y-102553828D02*
X149157938Y-102625257D01*
X129515082Y-105897400D02*
X129729368Y-105968828D01*
X129729368Y-105968828D02*
X130086510Y-105968828D01*
X130086510Y-105968828D02*
X130229368Y-105897400D01*
X130229368Y-105897400D02*
X130300796Y-105825971D01*
X130300796Y-105825971D02*
X130372225Y-105683114D01*
X130372225Y-105683114D02*
X130372225Y-105540257D01*
X130372225Y-105540257D02*
X130300796Y-105397400D01*
X130300796Y-105397400D02*
X130229368Y-105325971D01*
X130229368Y-105325971D02*
X130086510Y-105254542D01*
X130086510Y-105254542D02*
X129800796Y-105183114D01*
X129800796Y-105183114D02*
X129657939Y-105111685D01*
X129657939Y-105111685D02*
X129586510Y-105040257D01*
X129586510Y-105040257D02*
X129515082Y-104897400D01*
X129515082Y-104897400D02*
X129515082Y-104754542D01*
X129515082Y-104754542D02*
X129586510Y-104611685D01*
X129586510Y-104611685D02*
X129657939Y-104540257D01*
X129657939Y-104540257D02*
X129800796Y-104468828D01*
X129800796Y-104468828D02*
X130157939Y-104468828D01*
X130157939Y-104468828D02*
X130372225Y-104540257D01*
X131015081Y-105968828D02*
X131015081Y-104468828D01*
X131015081Y-104468828D02*
X131515081Y-105540257D01*
X131515081Y-105540257D02*
X132015081Y-104468828D01*
X132015081Y-104468828D02*
X132015081Y-105968828D01*
X132729367Y-105968828D02*
X132729367Y-104468828D01*
X132729367Y-104468828D02*
X133086510Y-104468828D01*
X133086510Y-104468828D02*
X133300796Y-104540257D01*
X133300796Y-104540257D02*
X133443653Y-104683114D01*
X133443653Y-104683114D02*
X133515082Y-104825971D01*
X133515082Y-104825971D02*
X133586510Y-105111685D01*
X133586510Y-105111685D02*
X133586510Y-105325971D01*
X133586510Y-105325971D02*
X133515082Y-105611685D01*
X133515082Y-105611685D02*
X133443653Y-105754542D01*
X133443653Y-105754542D02*
X133300796Y-105897400D01*
X133300796Y-105897400D02*
X133086510Y-105968828D01*
X133086510Y-105968828D02*
X132729367Y-105968828D01*
X136229367Y-105825971D02*
X136157939Y-105897400D01*
X136157939Y-105897400D02*
X135943653Y-105968828D01*
X135943653Y-105968828D02*
X135800796Y-105968828D01*
X135800796Y-105968828D02*
X135586510Y-105897400D01*
X135586510Y-105897400D02*
X135443653Y-105754542D01*
X135443653Y-105754542D02*
X135372224Y-105611685D01*
X135372224Y-105611685D02*
X135300796Y-105325971D01*
X135300796Y-105325971D02*
X135300796Y-105111685D01*
X135300796Y-105111685D02*
X135372224Y-104825971D01*
X135372224Y-104825971D02*
X135443653Y-104683114D01*
X135443653Y-104683114D02*
X135586510Y-104540257D01*
X135586510Y-104540257D02*
X135800796Y-104468828D01*
X135800796Y-104468828D02*
X135943653Y-104468828D01*
X135943653Y-104468828D02*
X136157939Y-104540257D01*
X136157939Y-104540257D02*
X136229367Y-104611685D01*
X137086510Y-105968828D02*
X136943653Y-105897400D01*
X136943653Y-105897400D02*
X136872224Y-105825971D01*
X136872224Y-105825971D02*
X136800796Y-105683114D01*
X136800796Y-105683114D02*
X136800796Y-105254542D01*
X136800796Y-105254542D02*
X136872224Y-105111685D01*
X136872224Y-105111685D02*
X136943653Y-105040257D01*
X136943653Y-105040257D02*
X137086510Y-104968828D01*
X137086510Y-104968828D02*
X137300796Y-104968828D01*
X137300796Y-104968828D02*
X137443653Y-105040257D01*
X137443653Y-105040257D02*
X137515082Y-105111685D01*
X137515082Y-105111685D02*
X137586510Y-105254542D01*
X137586510Y-105254542D02*
X137586510Y-105683114D01*
X137586510Y-105683114D02*
X137515082Y-105825971D01*
X137515082Y-105825971D02*
X137443653Y-105897400D01*
X137443653Y-105897400D02*
X137300796Y-105968828D01*
X137300796Y-105968828D02*
X137086510Y-105968828D01*
X138229367Y-105968828D02*
X138229367Y-104968828D01*
X138229367Y-105111685D02*
X138300796Y-105040257D01*
X138300796Y-105040257D02*
X138443653Y-104968828D01*
X138443653Y-104968828D02*
X138657939Y-104968828D01*
X138657939Y-104968828D02*
X138800796Y-105040257D01*
X138800796Y-105040257D02*
X138872225Y-105183114D01*
X138872225Y-105183114D02*
X138872225Y-105968828D01*
X138872225Y-105183114D02*
X138943653Y-105040257D01*
X138943653Y-105040257D02*
X139086510Y-104968828D01*
X139086510Y-104968828D02*
X139300796Y-104968828D01*
X139300796Y-104968828D02*
X139443653Y-105040257D01*
X139443653Y-105040257D02*
X139515082Y-105183114D01*
X139515082Y-105183114D02*
X139515082Y-105968828D01*
X140229367Y-104968828D02*
X140229367Y-106468828D01*
X140229367Y-105040257D02*
X140372225Y-104968828D01*
X140372225Y-104968828D02*
X140657939Y-104968828D01*
X140657939Y-104968828D02*
X140800796Y-105040257D01*
X140800796Y-105040257D02*
X140872225Y-105111685D01*
X140872225Y-105111685D02*
X140943653Y-105254542D01*
X140943653Y-105254542D02*
X140943653Y-105683114D01*
X140943653Y-105683114D02*
X140872225Y-105825971D01*
X140872225Y-105825971D02*
X140800796Y-105897400D01*
X140800796Y-105897400D02*
X140657939Y-105968828D01*
X140657939Y-105968828D02*
X140372225Y-105968828D01*
X140372225Y-105968828D02*
X140229367Y-105897400D01*
X141800796Y-105968828D02*
X141657939Y-105897400D01*
X141657939Y-105897400D02*
X141586510Y-105825971D01*
X141586510Y-105825971D02*
X141515082Y-105683114D01*
X141515082Y-105683114D02*
X141515082Y-105254542D01*
X141515082Y-105254542D02*
X141586510Y-105111685D01*
X141586510Y-105111685D02*
X141657939Y-105040257D01*
X141657939Y-105040257D02*
X141800796Y-104968828D01*
X141800796Y-104968828D02*
X142015082Y-104968828D01*
X142015082Y-104968828D02*
X142157939Y-105040257D01*
X142157939Y-105040257D02*
X142229368Y-105111685D01*
X142229368Y-105111685D02*
X142300796Y-105254542D01*
X142300796Y-105254542D02*
X142300796Y-105683114D01*
X142300796Y-105683114D02*
X142229368Y-105825971D01*
X142229368Y-105825971D02*
X142157939Y-105897400D01*
X142157939Y-105897400D02*
X142015082Y-105968828D01*
X142015082Y-105968828D02*
X141800796Y-105968828D01*
X142943653Y-104968828D02*
X142943653Y-105968828D01*
X142943653Y-105111685D02*
X143015082Y-105040257D01*
X143015082Y-105040257D02*
X143157939Y-104968828D01*
X143157939Y-104968828D02*
X143372225Y-104968828D01*
X143372225Y-104968828D02*
X143515082Y-105040257D01*
X143515082Y-105040257D02*
X143586511Y-105183114D01*
X143586511Y-105183114D02*
X143586511Y-105968828D01*
X144872225Y-105897400D02*
X144729368Y-105968828D01*
X144729368Y-105968828D02*
X144443654Y-105968828D01*
X144443654Y-105968828D02*
X144300796Y-105897400D01*
X144300796Y-105897400D02*
X144229368Y-105754542D01*
X144229368Y-105754542D02*
X144229368Y-105183114D01*
X144229368Y-105183114D02*
X144300796Y-105040257D01*
X144300796Y-105040257D02*
X144443654Y-104968828D01*
X144443654Y-104968828D02*
X144729368Y-104968828D01*
X144729368Y-104968828D02*
X144872225Y-105040257D01*
X144872225Y-105040257D02*
X144943654Y-105183114D01*
X144943654Y-105183114D02*
X144943654Y-105325971D01*
X144943654Y-105325971D02*
X144229368Y-105468828D01*
X145586510Y-104968828D02*
X145586510Y-105968828D01*
X145586510Y-105111685D02*
X145657939Y-105040257D01*
X145657939Y-105040257D02*
X145800796Y-104968828D01*
X145800796Y-104968828D02*
X146015082Y-104968828D01*
X146015082Y-104968828D02*
X146157939Y-105040257D01*
X146157939Y-105040257D02*
X146229368Y-105183114D01*
X146229368Y-105183114D02*
X146229368Y-105968828D01*
X146729368Y-104968828D02*
X147300796Y-104968828D01*
X146943653Y-104468828D02*
X146943653Y-105754542D01*
X146943653Y-105754542D02*
X147015082Y-105897400D01*
X147015082Y-105897400D02*
X147157939Y-105968828D01*
X147157939Y-105968828D02*
X147300796Y-105968828D01*
X147729368Y-105897400D02*
X147872225Y-105968828D01*
X147872225Y-105968828D02*
X148157939Y-105968828D01*
X148157939Y-105968828D02*
X148300796Y-105897400D01*
X148300796Y-105897400D02*
X148372225Y-105754542D01*
X148372225Y-105754542D02*
X148372225Y-105683114D01*
X148372225Y-105683114D02*
X148300796Y-105540257D01*
X148300796Y-105540257D02*
X148157939Y-105468828D01*
X148157939Y-105468828D02*
X147943654Y-105468828D01*
X147943654Y-105468828D02*
X147800796Y-105397400D01*
X147800796Y-105397400D02*
X147729368Y-105254542D01*
X147729368Y-105254542D02*
X147729368Y-105183114D01*
X147729368Y-105183114D02*
X147800796Y-105040257D01*
X147800796Y-105040257D02*
X147943654Y-104968828D01*
X147943654Y-104968828D02*
X148157939Y-104968828D01*
X148157939Y-104968828D02*
X148300796Y-105040257D01*
X130086510Y-107598114D02*
X130300796Y-107669542D01*
X130300796Y-107669542D02*
X130372225Y-107740971D01*
X130372225Y-107740971D02*
X130443653Y-107883828D01*
X130443653Y-107883828D02*
X130443653Y-108098114D01*
X130443653Y-108098114D02*
X130372225Y-108240971D01*
X130372225Y-108240971D02*
X130300796Y-108312400D01*
X130300796Y-108312400D02*
X130157939Y-108383828D01*
X130157939Y-108383828D02*
X129586510Y-108383828D01*
X129586510Y-108383828D02*
X129586510Y-106883828D01*
X129586510Y-106883828D02*
X130086510Y-106883828D01*
X130086510Y-106883828D02*
X130229368Y-106955257D01*
X130229368Y-106955257D02*
X130300796Y-107026685D01*
X130300796Y-107026685D02*
X130372225Y-107169542D01*
X130372225Y-107169542D02*
X130372225Y-107312400D01*
X130372225Y-107312400D02*
X130300796Y-107455257D01*
X130300796Y-107455257D02*
X130229368Y-107526685D01*
X130229368Y-107526685D02*
X130086510Y-107598114D01*
X130086510Y-107598114D02*
X129586510Y-107598114D01*
X130943653Y-107383828D02*
X131300796Y-108383828D01*
X131657939Y-107383828D02*
X131300796Y-108383828D01*
X131300796Y-108383828D02*
X131157939Y-108740971D01*
X131157939Y-108740971D02*
X131086510Y-108812400D01*
X131086510Y-108812400D02*
X130943653Y-108883828D01*
X133372224Y-108383828D02*
X133372224Y-106883828D01*
X134229367Y-108383828D02*
X133586510Y-107526685D01*
X134229367Y-106883828D02*
X133372224Y-107740971D01*
X134729367Y-106883828D02*
X135729367Y-106883828D01*
X135729367Y-106883828D02*
X135086510Y-108383828D01*
X137157938Y-108383828D02*
X136657938Y-107669542D01*
X136300795Y-108383828D02*
X136300795Y-106883828D01*
X136300795Y-106883828D02*
X136872224Y-106883828D01*
X136872224Y-106883828D02*
X137015081Y-106955257D01*
X137015081Y-106955257D02*
X137086510Y-107026685D01*
X137086510Y-107026685D02*
X137157938Y-107169542D01*
X137157938Y-107169542D02*
X137157938Y-107383828D01*
X137157938Y-107383828D02*
X137086510Y-107526685D01*
X137086510Y-107526685D02*
X137015081Y-107598114D01*
X137015081Y-107598114D02*
X136872224Y-107669542D01*
X136872224Y-107669542D02*
X136300795Y-107669542D01*
X138657938Y-108383828D02*
X138157938Y-107669542D01*
X137800795Y-108383828D02*
X137800795Y-106883828D01*
X137800795Y-106883828D02*
X138372224Y-106883828D01*
X138372224Y-106883828D02*
X138515081Y-106955257D01*
X138515081Y-106955257D02*
X138586510Y-107026685D01*
X138586510Y-107026685D02*
X138657938Y-107169542D01*
X138657938Y-107169542D02*
X138657938Y-107383828D01*
X138657938Y-107383828D02*
X138586510Y-107526685D01*
X138586510Y-107526685D02*
X138515081Y-107598114D01*
X138515081Y-107598114D02*
X138372224Y-107669542D01*
X138372224Y-107669542D02*
X137800795Y-107669542D01*
X140015081Y-108383828D02*
X139300795Y-108383828D01*
X139300795Y-108383828D02*
X139300795Y-106883828D01*
X129515082Y-109441685D02*
X129586510Y-109370257D01*
X129586510Y-109370257D02*
X129729368Y-109298828D01*
X129729368Y-109298828D02*
X130086510Y-109298828D01*
X130086510Y-109298828D02*
X130229368Y-109370257D01*
X130229368Y-109370257D02*
X130300796Y-109441685D01*
X130300796Y-109441685D02*
X130372225Y-109584542D01*
X130372225Y-109584542D02*
X130372225Y-109727400D01*
X130372225Y-109727400D02*
X130300796Y-109941685D01*
X130300796Y-109941685D02*
X129443653Y-110798828D01*
X129443653Y-110798828D02*
X130372225Y-110798828D01*
X131300796Y-109298828D02*
X131443653Y-109298828D01*
X131443653Y-109298828D02*
X131586510Y-109370257D01*
X131586510Y-109370257D02*
X131657939Y-109441685D01*
X131657939Y-109441685D02*
X131729367Y-109584542D01*
X131729367Y-109584542D02*
X131800796Y-109870257D01*
X131800796Y-109870257D02*
X131800796Y-110227400D01*
X131800796Y-110227400D02*
X131729367Y-110513114D01*
X131729367Y-110513114D02*
X131657939Y-110655971D01*
X131657939Y-110655971D02*
X131586510Y-110727400D01*
X131586510Y-110727400D02*
X131443653Y-110798828D01*
X131443653Y-110798828D02*
X131300796Y-110798828D01*
X131300796Y-110798828D02*
X131157939Y-110727400D01*
X131157939Y-110727400D02*
X131086510Y-110655971D01*
X131086510Y-110655971D02*
X131015081Y-110513114D01*
X131015081Y-110513114D02*
X130943653Y-110227400D01*
X130943653Y-110227400D02*
X130943653Y-109870257D01*
X130943653Y-109870257D02*
X131015081Y-109584542D01*
X131015081Y-109584542D02*
X131086510Y-109441685D01*
X131086510Y-109441685D02*
X131157939Y-109370257D01*
X131157939Y-109370257D02*
X131300796Y-109298828D01*
X132372224Y-109441685D02*
X132443652Y-109370257D01*
X132443652Y-109370257D02*
X132586510Y-109298828D01*
X132586510Y-109298828D02*
X132943652Y-109298828D01*
X132943652Y-109298828D02*
X133086510Y-109370257D01*
X133086510Y-109370257D02*
X133157938Y-109441685D01*
X133157938Y-109441685D02*
X133229367Y-109584542D01*
X133229367Y-109584542D02*
X133229367Y-109727400D01*
X133229367Y-109727400D02*
X133157938Y-109941685D01*
X133157938Y-109941685D02*
X132300795Y-110798828D01*
X132300795Y-110798828D02*
X133229367Y-110798828D01*
X134586509Y-109298828D02*
X133872223Y-109298828D01*
X133872223Y-109298828D02*
X133800795Y-110013114D01*
X133800795Y-110013114D02*
X133872223Y-109941685D01*
X133872223Y-109941685D02*
X134015081Y-109870257D01*
X134015081Y-109870257D02*
X134372223Y-109870257D01*
X134372223Y-109870257D02*
X134515081Y-109941685D01*
X134515081Y-109941685D02*
X134586509Y-110013114D01*
X134586509Y-110013114D02*
X134657938Y-110155971D01*
X134657938Y-110155971D02*
X134657938Y-110513114D01*
X134657938Y-110513114D02*
X134586509Y-110655971D01*
X134586509Y-110655971D02*
X134515081Y-110727400D01*
X134515081Y-110727400D02*
X134372223Y-110798828D01*
X134372223Y-110798828D02*
X134015081Y-110798828D01*
X134015081Y-110798828D02*
X133872223Y-110727400D01*
X133872223Y-110727400D02*
X133800795Y-110655971D01*
D10*
X171754969Y-93087819D02*
X171278779Y-93087819D01*
X171278779Y-93087819D02*
X171278779Y-92087819D01*
X172088303Y-92564009D02*
X172421636Y-92564009D01*
X172564493Y-93087819D02*
X172088303Y-93087819D01*
X172088303Y-93087819D02*
X172088303Y-92087819D01*
X172088303Y-92087819D02*
X172564493Y-92087819D01*
X172993065Y-93087819D02*
X172993065Y-92087819D01*
X172993065Y-92087819D02*
X173231160Y-92087819D01*
X173231160Y-92087819D02*
X173374017Y-92135438D01*
X173374017Y-92135438D02*
X173469255Y-92230676D01*
X173469255Y-92230676D02*
X173516874Y-92325914D01*
X173516874Y-92325914D02*
X173564493Y-92516390D01*
X173564493Y-92516390D02*
X173564493Y-92659247D01*
X173564493Y-92659247D02*
X173516874Y-92849723D01*
X173516874Y-92849723D02*
X173469255Y-92944961D01*
X173469255Y-92944961D02*
X173374017Y-93040200D01*
X173374017Y-93040200D02*
X173231160Y-93087819D01*
X173231160Y-93087819D02*
X172993065Y-93087819D01*
X172040779Y-85467819D02*
X172040779Y-84467819D01*
X172040779Y-84467819D02*
X172278874Y-84467819D01*
X172278874Y-84467819D02*
X172421731Y-84515438D01*
X172421731Y-84515438D02*
X172516969Y-84610676D01*
X172516969Y-84610676D02*
X172564588Y-84705914D01*
X172564588Y-84705914D02*
X172612207Y-84896390D01*
X172612207Y-84896390D02*
X172612207Y-85039247D01*
X172612207Y-85039247D02*
X172564588Y-85229723D01*
X172564588Y-85229723D02*
X172516969Y-85324961D01*
X172516969Y-85324961D02*
X172421731Y-85420200D01*
X172421731Y-85420200D02*
X172278874Y-85467819D01*
X172278874Y-85467819D02*
X172040779Y-85467819D01*
X173612207Y-85372580D02*
X173564588Y-85420200D01*
X173564588Y-85420200D02*
X173421731Y-85467819D01*
X173421731Y-85467819D02*
X173326493Y-85467819D01*
X173326493Y-85467819D02*
X173183636Y-85420200D01*
X173183636Y-85420200D02*
X173088398Y-85324961D01*
X173088398Y-85324961D02*
X173040779Y-85229723D01*
X173040779Y-85229723D02*
X172993160Y-85039247D01*
X172993160Y-85039247D02*
X172993160Y-84896390D01*
X172993160Y-84896390D02*
X173040779Y-84705914D01*
X173040779Y-84705914D02*
X173088398Y-84610676D01*
X173088398Y-84610676D02*
X173183636Y-84515438D01*
X173183636Y-84515438D02*
X173326493Y-84467819D01*
X173326493Y-84467819D02*
X173421731Y-84467819D01*
X173421731Y-84467819D02*
X173564588Y-84515438D01*
X173564588Y-84515438D02*
X173612207Y-84563057D01*
X170262779Y-88007819D02*
X170262779Y-87007819D01*
X170262779Y-87007819D02*
X170596112Y-87722104D01*
X170596112Y-87722104D02*
X170929445Y-87007819D01*
X170929445Y-87007819D02*
X170929445Y-88007819D01*
X171596112Y-87007819D02*
X171786588Y-87007819D01*
X171786588Y-87007819D02*
X171881826Y-87055438D01*
X171881826Y-87055438D02*
X171977064Y-87150676D01*
X171977064Y-87150676D02*
X172024683Y-87341152D01*
X172024683Y-87341152D02*
X172024683Y-87674485D01*
X172024683Y-87674485D02*
X171977064Y-87864961D01*
X171977064Y-87864961D02*
X171881826Y-87960200D01*
X171881826Y-87960200D02*
X171786588Y-88007819D01*
X171786588Y-88007819D02*
X171596112Y-88007819D01*
X171596112Y-88007819D02*
X171500874Y-87960200D01*
X171500874Y-87960200D02*
X171405636Y-87864961D01*
X171405636Y-87864961D02*
X171358017Y-87674485D01*
X171358017Y-87674485D02*
X171358017Y-87341152D01*
X171358017Y-87341152D02*
X171405636Y-87150676D01*
X171405636Y-87150676D02*
X171500874Y-87055438D01*
X171500874Y-87055438D02*
X171596112Y-87007819D01*
X172405636Y-87960200D02*
X172548493Y-88007819D01*
X172548493Y-88007819D02*
X172786588Y-88007819D01*
X172786588Y-88007819D02*
X172881826Y-87960200D01*
X172881826Y-87960200D02*
X172929445Y-87912580D01*
X172929445Y-87912580D02*
X172977064Y-87817342D01*
X172977064Y-87817342D02*
X172977064Y-87722104D01*
X172977064Y-87722104D02*
X172929445Y-87626866D01*
X172929445Y-87626866D02*
X172881826Y-87579247D01*
X172881826Y-87579247D02*
X172786588Y-87531628D01*
X172786588Y-87531628D02*
X172596112Y-87484009D01*
X172596112Y-87484009D02*
X172500874Y-87436390D01*
X172500874Y-87436390D02*
X172453255Y-87388771D01*
X172453255Y-87388771D02*
X172405636Y-87293533D01*
X172405636Y-87293533D02*
X172405636Y-87198295D01*
X172405636Y-87198295D02*
X172453255Y-87103057D01*
X172453255Y-87103057D02*
X172500874Y-87055438D01*
X172500874Y-87055438D02*
X172596112Y-87007819D01*
X172596112Y-87007819D02*
X172834207Y-87007819D01*
X172834207Y-87007819D02*
X172977064Y-87055438D01*
X173405636Y-88007819D02*
X173405636Y-87007819D01*
D11*
X115132225Y-110386257D02*
X114989368Y-110314828D01*
X114989368Y-110314828D02*
X114775082Y-110314828D01*
X114775082Y-110314828D02*
X114560796Y-110386257D01*
X114560796Y-110386257D02*
X114417939Y-110529114D01*
X114417939Y-110529114D02*
X114346510Y-110671971D01*
X114346510Y-110671971D02*
X114275082Y-110957685D01*
X114275082Y-110957685D02*
X114275082Y-111171971D01*
X114275082Y-111171971D02*
X114346510Y-111457685D01*
X114346510Y-111457685D02*
X114417939Y-111600542D01*
X114417939Y-111600542D02*
X114560796Y-111743400D01*
X114560796Y-111743400D02*
X114775082Y-111814828D01*
X114775082Y-111814828D02*
X114917939Y-111814828D01*
X114917939Y-111814828D02*
X115132225Y-111743400D01*
X115132225Y-111743400D02*
X115203653Y-111671971D01*
X115203653Y-111671971D02*
X115203653Y-111171971D01*
X115203653Y-111171971D02*
X114917939Y-111171971D01*
X115846510Y-111814828D02*
X115846510Y-110314828D01*
X115846510Y-110314828D02*
X116703653Y-111814828D01*
X116703653Y-111814828D02*
X116703653Y-110314828D01*
X117417939Y-111814828D02*
X117417939Y-110314828D01*
X117417939Y-110314828D02*
X117775082Y-110314828D01*
X117775082Y-110314828D02*
X117989368Y-110386257D01*
X117989368Y-110386257D02*
X118132225Y-110529114D01*
X118132225Y-110529114D02*
X118203654Y-110671971D01*
X118203654Y-110671971D02*
X118275082Y-110957685D01*
X118275082Y-110957685D02*
X118275082Y-111171971D01*
X118275082Y-111171971D02*
X118203654Y-111457685D01*
X118203654Y-111457685D02*
X118132225Y-111600542D01*
X118132225Y-111600542D02*
X117989368Y-111743400D01*
X117989368Y-111743400D02*
X117775082Y-111814828D01*
X117775082Y-111814828D02*
X117417939Y-111814828D01*
D10*
X107590295Y-109899220D02*
X106790295Y-109899220D01*
X107590295Y-109327792D02*
X107133152Y-109756363D01*
X106790295Y-109327792D02*
X107247438Y-109899220D01*
X107171247Y-108899220D02*
X107171247Y-108565887D01*
X107590295Y-108423030D02*
X107590295Y-108899220D01*
X107590295Y-108899220D02*
X106790295Y-108899220D01*
X106790295Y-108899220D02*
X106790295Y-108423030D01*
X107209342Y-107803982D02*
X107590295Y-107803982D01*
X106790295Y-108137315D02*
X107209342Y-107803982D01*
X107209342Y-107803982D02*
X106790295Y-107470649D01*
X106790295Y-106184934D02*
X106790295Y-105994458D01*
X106790295Y-105994458D02*
X106828390Y-105899220D01*
X106828390Y-105899220D02*
X106904580Y-105803982D01*
X106904580Y-105803982D02*
X107056961Y-105756363D01*
X107056961Y-105756363D02*
X107323628Y-105756363D01*
X107323628Y-105756363D02*
X107476009Y-105803982D01*
X107476009Y-105803982D02*
X107552200Y-105899220D01*
X107552200Y-105899220D02*
X107590295Y-105994458D01*
X107590295Y-105994458D02*
X107590295Y-106184934D01*
X107590295Y-106184934D02*
X107552200Y-106280172D01*
X107552200Y-106280172D02*
X107476009Y-106375410D01*
X107476009Y-106375410D02*
X107323628Y-106423029D01*
X107323628Y-106423029D02*
X107056961Y-106423029D01*
X107056961Y-106423029D02*
X106904580Y-106375410D01*
X106904580Y-106375410D02*
X106828390Y-106280172D01*
X106828390Y-106280172D02*
X106790295Y-106184934D01*
X106790295Y-105327791D02*
X107437914Y-105327791D01*
X107437914Y-105327791D02*
X107514104Y-105280172D01*
X107514104Y-105280172D02*
X107552200Y-105232553D01*
X107552200Y-105232553D02*
X107590295Y-105137315D01*
X107590295Y-105137315D02*
X107590295Y-104946839D01*
X107590295Y-104946839D02*
X107552200Y-104851601D01*
X107552200Y-104851601D02*
X107514104Y-104803982D01*
X107514104Y-104803982D02*
X107437914Y-104756363D01*
X107437914Y-104756363D02*
X106790295Y-104756363D01*
X106790295Y-104423029D02*
X106790295Y-103851601D01*
X107590295Y-104137315D02*
X106790295Y-104137315D01*
X171850207Y-82927819D02*
X171516874Y-82451628D01*
X171278779Y-82927819D02*
X171278779Y-81927819D01*
X171278779Y-81927819D02*
X171659731Y-81927819D01*
X171659731Y-81927819D02*
X171754969Y-81975438D01*
X171754969Y-81975438D02*
X171802588Y-82023057D01*
X171802588Y-82023057D02*
X171850207Y-82118295D01*
X171850207Y-82118295D02*
X171850207Y-82261152D01*
X171850207Y-82261152D02*
X171802588Y-82356390D01*
X171802588Y-82356390D02*
X171754969Y-82404009D01*
X171754969Y-82404009D02*
X171659731Y-82451628D01*
X171659731Y-82451628D02*
X171278779Y-82451628D01*
X172231160Y-82880200D02*
X172374017Y-82927819D01*
X172374017Y-82927819D02*
X172612112Y-82927819D01*
X172612112Y-82927819D02*
X172707350Y-82880200D01*
X172707350Y-82880200D02*
X172754969Y-82832580D01*
X172754969Y-82832580D02*
X172802588Y-82737342D01*
X172802588Y-82737342D02*
X172802588Y-82642104D01*
X172802588Y-82642104D02*
X172754969Y-82546866D01*
X172754969Y-82546866D02*
X172707350Y-82499247D01*
X172707350Y-82499247D02*
X172612112Y-82451628D01*
X172612112Y-82451628D02*
X172421636Y-82404009D01*
X172421636Y-82404009D02*
X172326398Y-82356390D01*
X172326398Y-82356390D02*
X172278779Y-82308771D01*
X172278779Y-82308771D02*
X172231160Y-82213533D01*
X172231160Y-82213533D02*
X172231160Y-82118295D01*
X172231160Y-82118295D02*
X172278779Y-82023057D01*
X172278779Y-82023057D02*
X172326398Y-81975438D01*
X172326398Y-81975438D02*
X172421636Y-81927819D01*
X172421636Y-81927819D02*
X172659731Y-81927819D01*
X172659731Y-81927819D02*
X172802588Y-81975438D01*
X173088303Y-81927819D02*
X173659731Y-81927819D01*
X173374017Y-82927819D02*
X173374017Y-81927819D01*
X171135922Y-74053819D02*
X171469255Y-75053819D01*
X171469255Y-75053819D02*
X171802588Y-74053819D01*
X172707350Y-74958580D02*
X172659731Y-75006200D01*
X172659731Y-75006200D02*
X172516874Y-75053819D01*
X172516874Y-75053819D02*
X172421636Y-75053819D01*
X172421636Y-75053819D02*
X172278779Y-75006200D01*
X172278779Y-75006200D02*
X172183541Y-74910961D01*
X172183541Y-74910961D02*
X172135922Y-74815723D01*
X172135922Y-74815723D02*
X172088303Y-74625247D01*
X172088303Y-74625247D02*
X172088303Y-74482390D01*
X172088303Y-74482390D02*
X172135922Y-74291914D01*
X172135922Y-74291914D02*
X172183541Y-74196676D01*
X172183541Y-74196676D02*
X172278779Y-74101438D01*
X172278779Y-74101438D02*
X172421636Y-74053819D01*
X172421636Y-74053819D02*
X172516874Y-74053819D01*
X172516874Y-74053819D02*
X172659731Y-74101438D01*
X172659731Y-74101438D02*
X172707350Y-74149057D01*
X173707350Y-74958580D02*
X173659731Y-75006200D01*
X173659731Y-75006200D02*
X173516874Y-75053819D01*
X173516874Y-75053819D02*
X173421636Y-75053819D01*
X173421636Y-75053819D02*
X173278779Y-75006200D01*
X173278779Y-75006200D02*
X173183541Y-74910961D01*
X173183541Y-74910961D02*
X173135922Y-74815723D01*
X173135922Y-74815723D02*
X173088303Y-74625247D01*
X173088303Y-74625247D02*
X173088303Y-74482390D01*
X173088303Y-74482390D02*
X173135922Y-74291914D01*
X173135922Y-74291914D02*
X173183541Y-74196676D01*
X173183541Y-74196676D02*
X173278779Y-74101438D01*
X173278779Y-74101438D02*
X173421636Y-74053819D01*
X173421636Y-74053819D02*
X173516874Y-74053819D01*
X173516874Y-74053819D02*
X173659731Y-74101438D01*
X173659731Y-74101438D02*
X173707350Y-74149057D01*
X171548588Y-76641438D02*
X171453350Y-76593819D01*
X171453350Y-76593819D02*
X171310493Y-76593819D01*
X171310493Y-76593819D02*
X171167636Y-76641438D01*
X171167636Y-76641438D02*
X171072398Y-76736676D01*
X171072398Y-76736676D02*
X171024779Y-76831914D01*
X171024779Y-76831914D02*
X170977160Y-77022390D01*
X170977160Y-77022390D02*
X170977160Y-77165247D01*
X170977160Y-77165247D02*
X171024779Y-77355723D01*
X171024779Y-77355723D02*
X171072398Y-77450961D01*
X171072398Y-77450961D02*
X171167636Y-77546200D01*
X171167636Y-77546200D02*
X171310493Y-77593819D01*
X171310493Y-77593819D02*
X171405731Y-77593819D01*
X171405731Y-77593819D02*
X171548588Y-77546200D01*
X171548588Y-77546200D02*
X171596207Y-77498580D01*
X171596207Y-77498580D02*
X171596207Y-77165247D01*
X171596207Y-77165247D02*
X171405731Y-77165247D01*
X172024779Y-77593819D02*
X172024779Y-76593819D01*
X172024779Y-76593819D02*
X172596207Y-77593819D01*
X172596207Y-77593819D02*
X172596207Y-76593819D01*
X173072398Y-77593819D02*
X173072398Y-76593819D01*
X173072398Y-76593819D02*
X173310493Y-76593819D01*
X173310493Y-76593819D02*
X173453350Y-76641438D01*
X173453350Y-76641438D02*
X173548588Y-76736676D01*
X173548588Y-76736676D02*
X173596207Y-76831914D01*
X173596207Y-76831914D02*
X173643826Y-77022390D01*
X173643826Y-77022390D02*
X173643826Y-77165247D01*
X173643826Y-77165247D02*
X173596207Y-77355723D01*
X173596207Y-77355723D02*
X173548588Y-77450961D01*
X173548588Y-77450961D02*
X173453350Y-77546200D01*
X173453350Y-77546200D02*
X173310493Y-77593819D01*
X173310493Y-77593819D02*
X173072398Y-77593819D01*
X117250057Y-77565238D02*
X117202438Y-77660476D01*
X117202438Y-77660476D02*
X117107200Y-77755714D01*
X117107200Y-77755714D02*
X116964342Y-77898571D01*
X116964342Y-77898571D02*
X116916723Y-77993809D01*
X116916723Y-77993809D02*
X116916723Y-78089047D01*
X117154819Y-78041428D02*
X117107200Y-78136666D01*
X117107200Y-78136666D02*
X117011961Y-78231904D01*
X117011961Y-78231904D02*
X116821485Y-78279523D01*
X116821485Y-78279523D02*
X116488152Y-78279523D01*
X116488152Y-78279523D02*
X116297676Y-78231904D01*
X116297676Y-78231904D02*
X116202438Y-78136666D01*
X116202438Y-78136666D02*
X116154819Y-78041428D01*
X116154819Y-78041428D02*
X116154819Y-77850952D01*
X116154819Y-77850952D02*
X116202438Y-77755714D01*
X116202438Y-77755714D02*
X116297676Y-77660476D01*
X116297676Y-77660476D02*
X116488152Y-77612857D01*
X116488152Y-77612857D02*
X116821485Y-77612857D01*
X116821485Y-77612857D02*
X117011961Y-77660476D01*
X117011961Y-77660476D02*
X117107200Y-77755714D01*
X117107200Y-77755714D02*
X117154819Y-77850952D01*
X117154819Y-77850952D02*
X117154819Y-78041428D01*
X116250057Y-77231904D02*
X116202438Y-77184285D01*
X116202438Y-77184285D02*
X116154819Y-77089047D01*
X116154819Y-77089047D02*
X116154819Y-76850952D01*
X116154819Y-76850952D02*
X116202438Y-76755714D01*
X116202438Y-76755714D02*
X116250057Y-76708095D01*
X116250057Y-76708095D02*
X116345295Y-76660476D01*
X116345295Y-76660476D02*
X116440533Y-76660476D01*
X116440533Y-76660476D02*
X116583390Y-76708095D01*
X116583390Y-76708095D02*
X117154819Y-77279523D01*
X117154819Y-77279523D02*
X117154819Y-76660476D01*
X165133580Y-74080666D02*
X165181200Y-74128285D01*
X165181200Y-74128285D02*
X165228819Y-74271142D01*
X165228819Y-74271142D02*
X165228819Y-74366380D01*
X165228819Y-74366380D02*
X165181200Y-74509237D01*
X165181200Y-74509237D02*
X165085961Y-74604475D01*
X165085961Y-74604475D02*
X164990723Y-74652094D01*
X164990723Y-74652094D02*
X164800247Y-74699713D01*
X164800247Y-74699713D02*
X164657390Y-74699713D01*
X164657390Y-74699713D02*
X164466914Y-74652094D01*
X164466914Y-74652094D02*
X164371676Y-74604475D01*
X164371676Y-74604475D02*
X164276438Y-74509237D01*
X164276438Y-74509237D02*
X164228819Y-74366380D01*
X164228819Y-74366380D02*
X164228819Y-74271142D01*
X164228819Y-74271142D02*
X164276438Y-74128285D01*
X164276438Y-74128285D02*
X164324057Y-74080666D01*
X164228819Y-73747332D02*
X164228819Y-73128285D01*
X164228819Y-73128285D02*
X164609771Y-73461618D01*
X164609771Y-73461618D02*
X164609771Y-73318761D01*
X164609771Y-73318761D02*
X164657390Y-73223523D01*
X164657390Y-73223523D02*
X164705009Y-73175904D01*
X164705009Y-73175904D02*
X164800247Y-73128285D01*
X164800247Y-73128285D02*
X165038342Y-73128285D01*
X165038342Y-73128285D02*
X165133580Y-73175904D01*
X165133580Y-73175904D02*
X165181200Y-73223523D01*
X165181200Y-73223523D02*
X165228819Y-73318761D01*
X165228819Y-73318761D02*
X165228819Y-73604475D01*
X165228819Y-73604475D02*
X165181200Y-73699713D01*
X165181200Y-73699713D02*
X165133580Y-73747332D01*
X99347580Y-93384666D02*
X99395200Y-93432285D01*
X99395200Y-93432285D02*
X99442819Y-93575142D01*
X99442819Y-93575142D02*
X99442819Y-93670380D01*
X99442819Y-93670380D02*
X99395200Y-93813237D01*
X99395200Y-93813237D02*
X99299961Y-93908475D01*
X99299961Y-93908475D02*
X99204723Y-93956094D01*
X99204723Y-93956094D02*
X99014247Y-94003713D01*
X99014247Y-94003713D02*
X98871390Y-94003713D01*
X98871390Y-94003713D02*
X98680914Y-93956094D01*
X98680914Y-93956094D02*
X98585676Y-93908475D01*
X98585676Y-93908475D02*
X98490438Y-93813237D01*
X98490438Y-93813237D02*
X98442819Y-93670380D01*
X98442819Y-93670380D02*
X98442819Y-93575142D01*
X98442819Y-93575142D02*
X98490438Y-93432285D01*
X98490438Y-93432285D02*
X98538057Y-93384666D01*
X99442819Y-92432285D02*
X99442819Y-93003713D01*
X99442819Y-92717999D02*
X98442819Y-92717999D01*
X98442819Y-92717999D02*
X98585676Y-92813237D01*
X98585676Y-92813237D02*
X98680914Y-92908475D01*
X98680914Y-92908475D02*
X98728533Y-93003713D01*
X112424057Y-83661238D02*
X112376438Y-83756476D01*
X112376438Y-83756476D02*
X112281200Y-83851714D01*
X112281200Y-83851714D02*
X112138342Y-83994571D01*
X112138342Y-83994571D02*
X112090723Y-84089809D01*
X112090723Y-84089809D02*
X112090723Y-84185047D01*
X112328819Y-84137428D02*
X112281200Y-84232666D01*
X112281200Y-84232666D02*
X112185961Y-84327904D01*
X112185961Y-84327904D02*
X111995485Y-84375523D01*
X111995485Y-84375523D02*
X111662152Y-84375523D01*
X111662152Y-84375523D02*
X111471676Y-84327904D01*
X111471676Y-84327904D02*
X111376438Y-84232666D01*
X111376438Y-84232666D02*
X111328819Y-84137428D01*
X111328819Y-84137428D02*
X111328819Y-83946952D01*
X111328819Y-83946952D02*
X111376438Y-83851714D01*
X111376438Y-83851714D02*
X111471676Y-83756476D01*
X111471676Y-83756476D02*
X111662152Y-83708857D01*
X111662152Y-83708857D02*
X111995485Y-83708857D01*
X111995485Y-83708857D02*
X112185961Y-83756476D01*
X112185961Y-83756476D02*
X112281200Y-83851714D01*
X112281200Y-83851714D02*
X112328819Y-83946952D01*
X112328819Y-83946952D02*
X112328819Y-84137428D01*
X112328819Y-82756476D02*
X112328819Y-83327904D01*
X112328819Y-83042190D02*
X111328819Y-83042190D01*
X111328819Y-83042190D02*
X111471676Y-83137428D01*
X111471676Y-83137428D02*
X111566914Y-83232666D01*
X111566914Y-83232666D02*
X111614533Y-83327904D01*
X170775333Y-96951580D02*
X170727714Y-96999200D01*
X170727714Y-96999200D02*
X170584857Y-97046819D01*
X170584857Y-97046819D02*
X170489619Y-97046819D01*
X170489619Y-97046819D02*
X170346762Y-96999200D01*
X170346762Y-96999200D02*
X170251524Y-96903961D01*
X170251524Y-96903961D02*
X170203905Y-96808723D01*
X170203905Y-96808723D02*
X170156286Y-96618247D01*
X170156286Y-96618247D02*
X170156286Y-96475390D01*
X170156286Y-96475390D02*
X170203905Y-96284914D01*
X170203905Y-96284914D02*
X170251524Y-96189676D01*
X170251524Y-96189676D02*
X170346762Y-96094438D01*
X170346762Y-96094438D02*
X170489619Y-96046819D01*
X170489619Y-96046819D02*
X170584857Y-96046819D01*
X170584857Y-96046819D02*
X170727714Y-96094438D01*
X170727714Y-96094438D02*
X170775333Y-96142057D01*
X171632476Y-96380152D02*
X171632476Y-97046819D01*
X171394381Y-95999200D02*
X171156286Y-96713485D01*
X171156286Y-96713485D02*
X171775333Y-96713485D01*
X116574819Y-82401166D02*
X116098628Y-82734499D01*
X116574819Y-82972594D02*
X115574819Y-82972594D01*
X115574819Y-82972594D02*
X115574819Y-82591642D01*
X115574819Y-82591642D02*
X115622438Y-82496404D01*
X115622438Y-82496404D02*
X115670057Y-82448785D01*
X115670057Y-82448785D02*
X115765295Y-82401166D01*
X115765295Y-82401166D02*
X115908152Y-82401166D01*
X115908152Y-82401166D02*
X116003390Y-82448785D01*
X116003390Y-82448785D02*
X116051009Y-82496404D01*
X116051009Y-82496404D02*
X116098628Y-82591642D01*
X116098628Y-82591642D02*
X116098628Y-82972594D01*
X115908152Y-81544023D02*
X116574819Y-81544023D01*
X115527200Y-81782118D02*
X116241485Y-82020213D01*
X116241485Y-82020213D02*
X116241485Y-81401166D01*
X119274833Y-89862819D02*
X118941500Y-89386628D01*
X118703405Y-89862819D02*
X118703405Y-88862819D01*
X118703405Y-88862819D02*
X119084357Y-88862819D01*
X119084357Y-88862819D02*
X119179595Y-88910438D01*
X119179595Y-88910438D02*
X119227214Y-88958057D01*
X119227214Y-88958057D02*
X119274833Y-89053295D01*
X119274833Y-89053295D02*
X119274833Y-89196152D01*
X119274833Y-89196152D02*
X119227214Y-89291390D01*
X119227214Y-89291390D02*
X119179595Y-89339009D01*
X119179595Y-89339009D02*
X119084357Y-89386628D01*
X119084357Y-89386628D02*
X118703405Y-89386628D01*
X120179595Y-88862819D02*
X119703405Y-88862819D01*
X119703405Y-88862819D02*
X119655786Y-89339009D01*
X119655786Y-89339009D02*
X119703405Y-89291390D01*
X119703405Y-89291390D02*
X119798643Y-89243771D01*
X119798643Y-89243771D02*
X120036738Y-89243771D01*
X120036738Y-89243771D02*
X120131976Y-89291390D01*
X120131976Y-89291390D02*
X120179595Y-89339009D01*
X120179595Y-89339009D02*
X120227214Y-89434247D01*
X120227214Y-89434247D02*
X120227214Y-89672342D01*
X120227214Y-89672342D02*
X120179595Y-89767580D01*
X120179595Y-89767580D02*
X120131976Y-89815200D01*
X120131976Y-89815200D02*
X120036738Y-89862819D01*
X120036738Y-89862819D02*
X119798643Y-89862819D01*
X119798643Y-89862819D02*
X119703405Y-89815200D01*
X119703405Y-89815200D02*
X119655786Y-89767580D01*
X119213333Y-83420295D02*
X118880000Y-83039342D01*
X118641905Y-83420295D02*
X118641905Y-82620295D01*
X118641905Y-82620295D02*
X119022857Y-82620295D01*
X119022857Y-82620295D02*
X119118095Y-82658390D01*
X119118095Y-82658390D02*
X119165714Y-82696485D01*
X119165714Y-82696485D02*
X119213333Y-82772676D01*
X119213333Y-82772676D02*
X119213333Y-82886961D01*
X119213333Y-82886961D02*
X119165714Y-82963152D01*
X119165714Y-82963152D02*
X119118095Y-83001247D01*
X119118095Y-83001247D02*
X119022857Y-83039342D01*
X119022857Y-83039342D02*
X118641905Y-83039342D01*
X120070476Y-82620295D02*
X119880000Y-82620295D01*
X119880000Y-82620295D02*
X119784762Y-82658390D01*
X119784762Y-82658390D02*
X119737143Y-82696485D01*
X119737143Y-82696485D02*
X119641905Y-82810771D01*
X119641905Y-82810771D02*
X119594286Y-82963152D01*
X119594286Y-82963152D02*
X119594286Y-83267914D01*
X119594286Y-83267914D02*
X119641905Y-83344104D01*
X119641905Y-83344104D02*
X119689524Y-83382200D01*
X119689524Y-83382200D02*
X119784762Y-83420295D01*
X119784762Y-83420295D02*
X119975238Y-83420295D01*
X119975238Y-83420295D02*
X120070476Y-83382200D01*
X120070476Y-83382200D02*
X120118095Y-83344104D01*
X120118095Y-83344104D02*
X120165714Y-83267914D01*
X120165714Y-83267914D02*
X120165714Y-83077438D01*
X120165714Y-83077438D02*
X120118095Y-83001247D01*
X120118095Y-83001247D02*
X120070476Y-82963152D01*
X120070476Y-82963152D02*
X119975238Y-82925057D01*
X119975238Y-82925057D02*
X119784762Y-82925057D01*
X119784762Y-82925057D02*
X119689524Y-82963152D01*
X119689524Y-82963152D02*
X119641905Y-83001247D01*
X119641905Y-83001247D02*
X119594286Y-83077438D01*
X108928819Y-107775333D02*
X109643104Y-107775333D01*
X109643104Y-107775333D02*
X109785961Y-107822952D01*
X109785961Y-107822952D02*
X109881200Y-107918190D01*
X109881200Y-107918190D02*
X109928819Y-108061047D01*
X109928819Y-108061047D02*
X109928819Y-108156285D01*
X109928819Y-106775333D02*
X109928819Y-107346761D01*
X109928819Y-107061047D02*
X108928819Y-107061047D01*
X108928819Y-107061047D02*
X109071676Y-107156285D01*
X109071676Y-107156285D02*
X109166914Y-107251523D01*
X109166914Y-107251523D02*
X109214533Y-107346761D01*
X116763580Y-87288666D02*
X116811200Y-87336285D01*
X116811200Y-87336285D02*
X116858819Y-87479142D01*
X116858819Y-87479142D02*
X116858819Y-87574380D01*
X116858819Y-87574380D02*
X116811200Y-87717237D01*
X116811200Y-87717237D02*
X116715961Y-87812475D01*
X116715961Y-87812475D02*
X116620723Y-87860094D01*
X116620723Y-87860094D02*
X116430247Y-87907713D01*
X116430247Y-87907713D02*
X116287390Y-87907713D01*
X116287390Y-87907713D02*
X116096914Y-87860094D01*
X116096914Y-87860094D02*
X116001676Y-87812475D01*
X116001676Y-87812475D02*
X115906438Y-87717237D01*
X115906438Y-87717237D02*
X115858819Y-87574380D01*
X115858819Y-87574380D02*
X115858819Y-87479142D01*
X115858819Y-87479142D02*
X115906438Y-87336285D01*
X115906438Y-87336285D02*
X115954057Y-87288666D01*
X115954057Y-86907713D02*
X115906438Y-86860094D01*
X115906438Y-86860094D02*
X115858819Y-86764856D01*
X115858819Y-86764856D02*
X115858819Y-86526761D01*
X115858819Y-86526761D02*
X115906438Y-86431523D01*
X115906438Y-86431523D02*
X115954057Y-86383904D01*
X115954057Y-86383904D02*
X116049295Y-86336285D01*
X116049295Y-86336285D02*
X116144533Y-86336285D01*
X116144533Y-86336285D02*
X116287390Y-86383904D01*
X116287390Y-86383904D02*
X116858819Y-86955332D01*
X116858819Y-86955332D02*
X116858819Y-86336285D01*
X124773833Y-86791580D02*
X124726214Y-86839200D01*
X124726214Y-86839200D02*
X124583357Y-86886819D01*
X124583357Y-86886819D02*
X124488119Y-86886819D01*
X124488119Y-86886819D02*
X124345262Y-86839200D01*
X124345262Y-86839200D02*
X124250024Y-86743961D01*
X124250024Y-86743961D02*
X124202405Y-86648723D01*
X124202405Y-86648723D02*
X124154786Y-86458247D01*
X124154786Y-86458247D02*
X124154786Y-86315390D01*
X124154786Y-86315390D02*
X124202405Y-86124914D01*
X124202405Y-86124914D02*
X124250024Y-86029676D01*
X124250024Y-86029676D02*
X124345262Y-85934438D01*
X124345262Y-85934438D02*
X124488119Y-85886819D01*
X124488119Y-85886819D02*
X124583357Y-85886819D01*
X124583357Y-85886819D02*
X124726214Y-85934438D01*
X124726214Y-85934438D02*
X124773833Y-85982057D01*
X125678595Y-85886819D02*
X125202405Y-85886819D01*
X125202405Y-85886819D02*
X125154786Y-86363009D01*
X125154786Y-86363009D02*
X125202405Y-86315390D01*
X125202405Y-86315390D02*
X125297643Y-86267771D01*
X125297643Y-86267771D02*
X125535738Y-86267771D01*
X125535738Y-86267771D02*
X125630976Y-86315390D01*
X125630976Y-86315390D02*
X125678595Y-86363009D01*
X125678595Y-86363009D02*
X125726214Y-86458247D01*
X125726214Y-86458247D02*
X125726214Y-86696342D01*
X125726214Y-86696342D02*
X125678595Y-86791580D01*
X125678595Y-86791580D02*
X125630976Y-86839200D01*
X125630976Y-86839200D02*
X125535738Y-86886819D01*
X125535738Y-86886819D02*
X125297643Y-86886819D01*
X125297643Y-86886819D02*
X125202405Y-86839200D01*
X125202405Y-86839200D02*
X125154786Y-86791580D01*
X170100666Y-99276819D02*
X170100666Y-99991104D01*
X170100666Y-99991104D02*
X170053047Y-100133961D01*
X170053047Y-100133961D02*
X169957809Y-100229200D01*
X169957809Y-100229200D02*
X169814952Y-100276819D01*
X169814952Y-100276819D02*
X169719714Y-100276819D01*
X170481619Y-99276819D02*
X171100666Y-99276819D01*
X171100666Y-99276819D02*
X170767333Y-99657771D01*
X170767333Y-99657771D02*
X170910190Y-99657771D01*
X170910190Y-99657771D02*
X171005428Y-99705390D01*
X171005428Y-99705390D02*
X171053047Y-99753009D01*
X171053047Y-99753009D02*
X171100666Y-99848247D01*
X171100666Y-99848247D02*
X171100666Y-100086342D01*
X171100666Y-100086342D02*
X171053047Y-100181580D01*
X171053047Y-100181580D02*
X171005428Y-100229200D01*
X171005428Y-100229200D02*
X170910190Y-100276819D01*
X170910190Y-100276819D02*
X170624476Y-100276819D01*
X170624476Y-100276819D02*
X170529238Y-100229200D01*
X170529238Y-100229200D02*
X170481619Y-100181580D01*
X110577333Y-92402819D02*
X110244000Y-91926628D01*
X110005905Y-92402819D02*
X110005905Y-91402819D01*
X110005905Y-91402819D02*
X110386857Y-91402819D01*
X110386857Y-91402819D02*
X110482095Y-91450438D01*
X110482095Y-91450438D02*
X110529714Y-91498057D01*
X110529714Y-91498057D02*
X110577333Y-91593295D01*
X110577333Y-91593295D02*
X110577333Y-91736152D01*
X110577333Y-91736152D02*
X110529714Y-91831390D01*
X110529714Y-91831390D02*
X110482095Y-91879009D01*
X110482095Y-91879009D02*
X110386857Y-91926628D01*
X110386857Y-91926628D02*
X110005905Y-91926628D01*
X110958286Y-91498057D02*
X111005905Y-91450438D01*
X111005905Y-91450438D02*
X111101143Y-91402819D01*
X111101143Y-91402819D02*
X111339238Y-91402819D01*
X111339238Y-91402819D02*
X111434476Y-91450438D01*
X111434476Y-91450438D02*
X111482095Y-91498057D01*
X111482095Y-91498057D02*
X111529714Y-91593295D01*
X111529714Y-91593295D02*
X111529714Y-91688533D01*
X111529714Y-91688533D02*
X111482095Y-91831390D01*
X111482095Y-91831390D02*
X110910667Y-92402819D01*
X110910667Y-92402819D02*
X111529714Y-92402819D01*
X111680666Y-105118819D02*
X111680666Y-105833104D01*
X111680666Y-105833104D02*
X111633047Y-105975961D01*
X111633047Y-105975961D02*
X111537809Y-106071200D01*
X111537809Y-106071200D02*
X111394952Y-106118819D01*
X111394952Y-106118819D02*
X111299714Y-106118819D01*
X112585428Y-105452152D02*
X112585428Y-106118819D01*
X112347333Y-105071200D02*
X112109238Y-105785485D01*
X112109238Y-105785485D02*
X112728285Y-105785485D01*
X129698761Y-78782057D02*
X129603523Y-78734438D01*
X129603523Y-78734438D02*
X129508285Y-78639200D01*
X129508285Y-78639200D02*
X129365428Y-78496342D01*
X129365428Y-78496342D02*
X129270190Y-78448723D01*
X129270190Y-78448723D02*
X129174952Y-78448723D01*
X129222571Y-78686819D02*
X129127333Y-78639200D01*
X129127333Y-78639200D02*
X129032095Y-78543961D01*
X129032095Y-78543961D02*
X128984476Y-78353485D01*
X128984476Y-78353485D02*
X128984476Y-78020152D01*
X128984476Y-78020152D02*
X129032095Y-77829676D01*
X129032095Y-77829676D02*
X129127333Y-77734438D01*
X129127333Y-77734438D02*
X129222571Y-77686819D01*
X129222571Y-77686819D02*
X129413047Y-77686819D01*
X129413047Y-77686819D02*
X129508285Y-77734438D01*
X129508285Y-77734438D02*
X129603523Y-77829676D01*
X129603523Y-77829676D02*
X129651142Y-78020152D01*
X129651142Y-78020152D02*
X129651142Y-78353485D01*
X129651142Y-78353485D02*
X129603523Y-78543961D01*
X129603523Y-78543961D02*
X129508285Y-78639200D01*
X129508285Y-78639200D02*
X129413047Y-78686819D01*
X129413047Y-78686819D02*
X129222571Y-78686819D01*
X129984476Y-77686819D02*
X130603523Y-77686819D01*
X130603523Y-77686819D02*
X130270190Y-78067771D01*
X130270190Y-78067771D02*
X130413047Y-78067771D01*
X130413047Y-78067771D02*
X130508285Y-78115390D01*
X130508285Y-78115390D02*
X130555904Y-78163009D01*
X130555904Y-78163009D02*
X130603523Y-78258247D01*
X130603523Y-78258247D02*
X130603523Y-78496342D01*
X130603523Y-78496342D02*
X130555904Y-78591580D01*
X130555904Y-78591580D02*
X130508285Y-78639200D01*
X130508285Y-78639200D02*
X130413047Y-78686819D01*
X130413047Y-78686819D02*
X130127333Y-78686819D01*
X130127333Y-78686819D02*
X130032095Y-78639200D01*
X130032095Y-78639200D02*
X129984476Y-78591580D01*
X155059142Y-78178819D02*
X154582952Y-78178819D01*
X154582952Y-78178819D02*
X154582952Y-77178819D01*
X155344857Y-78131200D02*
X155487714Y-78178819D01*
X155487714Y-78178819D02*
X155725809Y-78178819D01*
X155725809Y-78178819D02*
X155821047Y-78131200D01*
X155821047Y-78131200D02*
X155868666Y-78083580D01*
X155868666Y-78083580D02*
X155916285Y-77988342D01*
X155916285Y-77988342D02*
X155916285Y-77893104D01*
X155916285Y-77893104D02*
X155868666Y-77797866D01*
X155868666Y-77797866D02*
X155821047Y-77750247D01*
X155821047Y-77750247D02*
X155725809Y-77702628D01*
X155725809Y-77702628D02*
X155535333Y-77655009D01*
X155535333Y-77655009D02*
X155440095Y-77607390D01*
X155440095Y-77607390D02*
X155392476Y-77559771D01*
X155392476Y-77559771D02*
X155344857Y-77464533D01*
X155344857Y-77464533D02*
X155344857Y-77369295D01*
X155344857Y-77369295D02*
X155392476Y-77274057D01*
X155392476Y-77274057D02*
X155440095Y-77226438D01*
X155440095Y-77226438D02*
X155535333Y-77178819D01*
X155535333Y-77178819D02*
X155773428Y-77178819D01*
X155773428Y-77178819D02*
X155916285Y-77226438D01*
X156868666Y-78178819D02*
X156297238Y-78178819D01*
X156582952Y-78178819D02*
X156582952Y-77178819D01*
X156582952Y-77178819D02*
X156487714Y-77321676D01*
X156487714Y-77321676D02*
X156392476Y-77416914D01*
X156392476Y-77416914D02*
X156297238Y-77464533D01*
X153235866Y-89016951D02*
X153235866Y-88255047D01*
X153616819Y-88635999D02*
X152854914Y-88635999D01*
X106767333Y-92402819D02*
X106434000Y-91926628D01*
X106195905Y-92402819D02*
X106195905Y-91402819D01*
X106195905Y-91402819D02*
X106576857Y-91402819D01*
X106576857Y-91402819D02*
X106672095Y-91450438D01*
X106672095Y-91450438D02*
X106719714Y-91498057D01*
X106719714Y-91498057D02*
X106767333Y-91593295D01*
X106767333Y-91593295D02*
X106767333Y-91736152D01*
X106767333Y-91736152D02*
X106719714Y-91831390D01*
X106719714Y-91831390D02*
X106672095Y-91879009D01*
X106672095Y-91879009D02*
X106576857Y-91926628D01*
X106576857Y-91926628D02*
X106195905Y-91926628D01*
X107100667Y-91402819D02*
X107719714Y-91402819D01*
X107719714Y-91402819D02*
X107386381Y-91783771D01*
X107386381Y-91783771D02*
X107529238Y-91783771D01*
X107529238Y-91783771D02*
X107624476Y-91831390D01*
X107624476Y-91831390D02*
X107672095Y-91879009D01*
X107672095Y-91879009D02*
X107719714Y-91974247D01*
X107719714Y-91974247D02*
X107719714Y-92212342D01*
X107719714Y-92212342D02*
X107672095Y-92307580D01*
X107672095Y-92307580D02*
X107624476Y-92355200D01*
X107624476Y-92355200D02*
X107529238Y-92402819D01*
X107529238Y-92402819D02*
X107243524Y-92402819D01*
X107243524Y-92402819D02*
X107148286Y-92355200D01*
X107148286Y-92355200D02*
X107100667Y-92307580D01*
X100292819Y-86105904D02*
X101102342Y-86105904D01*
X101102342Y-86105904D02*
X101197580Y-86058285D01*
X101197580Y-86058285D02*
X101245200Y-86010666D01*
X101245200Y-86010666D02*
X101292819Y-85915428D01*
X101292819Y-85915428D02*
X101292819Y-85724952D01*
X101292819Y-85724952D02*
X101245200Y-85629714D01*
X101245200Y-85629714D02*
X101197580Y-85582095D01*
X101197580Y-85582095D02*
X101102342Y-85534476D01*
X101102342Y-85534476D02*
X100292819Y-85534476D01*
X101292819Y-84534476D02*
X101292819Y-85105904D01*
X101292819Y-84820190D02*
X100292819Y-84820190D01*
X100292819Y-84820190D02*
X100435676Y-84915428D01*
X100435676Y-84915428D02*
X100530914Y-85010666D01*
X100530914Y-85010666D02*
X100578533Y-85105904D01*
X175180666Y-71800819D02*
X175180666Y-72515104D01*
X175180666Y-72515104D02*
X175133047Y-72657961D01*
X175133047Y-72657961D02*
X175037809Y-72753200D01*
X175037809Y-72753200D02*
X174894952Y-72800819D01*
X174894952Y-72800819D02*
X174799714Y-72800819D01*
X175609238Y-71896057D02*
X175656857Y-71848438D01*
X175656857Y-71848438D02*
X175752095Y-71800819D01*
X175752095Y-71800819D02*
X175990190Y-71800819D01*
X175990190Y-71800819D02*
X176085428Y-71848438D01*
X176085428Y-71848438D02*
X176133047Y-71896057D01*
X176133047Y-71896057D02*
X176180666Y-71991295D01*
X176180666Y-71991295D02*
X176180666Y-72086533D01*
X176180666Y-72086533D02*
X176133047Y-72229390D01*
X176133047Y-72229390D02*
X175561619Y-72800819D01*
X175561619Y-72800819D02*
X176180666Y-72800819D01*
X107092819Y-78083166D02*
X106616628Y-78416499D01*
X107092819Y-78654594D02*
X106092819Y-78654594D01*
X106092819Y-78654594D02*
X106092819Y-78273642D01*
X106092819Y-78273642D02*
X106140438Y-78178404D01*
X106140438Y-78178404D02*
X106188057Y-78130785D01*
X106188057Y-78130785D02*
X106283295Y-78083166D01*
X106283295Y-78083166D02*
X106426152Y-78083166D01*
X106426152Y-78083166D02*
X106521390Y-78130785D01*
X106521390Y-78130785D02*
X106569009Y-78178404D01*
X106569009Y-78178404D02*
X106616628Y-78273642D01*
X106616628Y-78273642D02*
X106616628Y-78654594D01*
X107092819Y-77130785D02*
X107092819Y-77702213D01*
X107092819Y-77416499D02*
X106092819Y-77416499D01*
X106092819Y-77416499D02*
X106235676Y-77511737D01*
X106235676Y-77511737D02*
X106330914Y-77606975D01*
X106330914Y-77606975D02*
X106378533Y-77702213D01*
D12*
%TO.C,Q2*%
X115860000Y-77470000D02*
X115860000Y-75795000D01*
X115860000Y-77470000D02*
X115860000Y-78120000D01*
X112740000Y-77470000D02*
X112740000Y-76820000D01*
X112740000Y-77470000D02*
X112740000Y-78120000D01*
%TO.C,C3*%
X165714000Y-74625252D02*
X165714000Y-73202748D01*
X167534000Y-74625252D02*
X167534000Y-73202748D01*
%TO.C,C1*%
X99928000Y-93929252D02*
X99928000Y-92506748D01*
X101748000Y-93929252D02*
X101748000Y-92506748D01*
%TO.C,Q1*%
X111034000Y-83566000D02*
X111034000Y-81891000D01*
X111034000Y-83566000D02*
X111034000Y-84216000D01*
X107914000Y-83566000D02*
X107914000Y-82916000D01*
X107914000Y-83566000D02*
X107914000Y-84216000D01*
%TO.C,C4*%
X171653252Y-95652000D02*
X170230748Y-95652000D01*
X171653252Y-93832000D02*
X170230748Y-93832000D01*
%TO.C,R4*%
X115210000Y-81507436D02*
X115210000Y-82961564D01*
X113390000Y-81507436D02*
X113390000Y-82961564D01*
%TO.C,R5*%
X118714436Y-86466000D02*
X120168564Y-86466000D01*
X118714436Y-88286000D02*
X120168564Y-88286000D01*
%TO.C,R6*%
X120168564Y-85492000D02*
X118714436Y-85492000D01*
X120168564Y-83672000D02*
X118714436Y-83672000D01*
%TO.C,J1*%
X105998000Y-101014000D02*
X105998000Y-113014000D01*
X94998000Y-101014000D02*
X105998000Y-101014000D01*
X94998000Y-102514000D02*
X94998000Y-101014000D01*
X93798000Y-102514000D02*
X94998000Y-102514000D01*
X93798000Y-104014000D02*
X93798000Y-102514000D01*
X91998000Y-104014000D02*
X93798000Y-104014000D01*
X94998000Y-105014000D02*
X91998000Y-105014000D01*
X94998000Y-109014000D02*
X94998000Y-105014000D01*
X91998000Y-109014000D02*
X94998000Y-109014000D01*
X93798000Y-110014000D02*
X91998000Y-110014000D01*
X91998000Y-110014000D02*
X91998000Y-104014000D01*
X94998000Y-111514000D02*
X93798000Y-111514000D01*
X93798000Y-111514000D02*
X93798000Y-110014000D01*
X105998000Y-113014000D02*
X94998000Y-113014000D01*
X94998000Y-113014000D02*
X94998000Y-111514000D01*
%TO.C,C2*%
X115464000Y-86410748D02*
X115464000Y-87833252D01*
X113644000Y-86410748D02*
X113644000Y-87833252D01*
%TO.C,C5*%
X125651752Y-85492000D02*
X124229248Y-85492000D01*
X125651752Y-83672000D02*
X124229248Y-83672000D01*
%TO.C,J3*%
X163162000Y-113014000D02*
X163162000Y-101014000D01*
X174162000Y-113014000D02*
X163162000Y-113014000D01*
X174162000Y-111514000D02*
X174162000Y-113014000D01*
X175362000Y-111514000D02*
X174162000Y-111514000D01*
X175362000Y-110014000D02*
X175362000Y-111514000D01*
X177162000Y-110014000D02*
X175362000Y-110014000D01*
X174162000Y-109014000D02*
X177162000Y-109014000D01*
X174162000Y-105014000D02*
X174162000Y-109014000D01*
X177162000Y-105014000D02*
X174162000Y-105014000D01*
X175362000Y-104014000D02*
X177162000Y-104014000D01*
X177162000Y-104014000D02*
X177162000Y-110014000D01*
X174162000Y-102514000D02*
X175362000Y-102514000D01*
X175362000Y-102514000D02*
X175362000Y-104014000D01*
X163162000Y-101014000D02*
X174162000Y-101014000D01*
X174162000Y-101014000D02*
X174162000Y-102514000D01*
%TO.C,R2*%
X109834000Y-89373064D02*
X109834000Y-87918936D01*
X111654000Y-89373064D02*
X111654000Y-87918936D01*
%TO.C,J4*%
X110684000Y-106874000D02*
X112014000Y-106874000D01*
X110684000Y-108204000D02*
X110684000Y-106874000D01*
X110684000Y-109474000D02*
X110684000Y-112074000D01*
X110684000Y-109474000D02*
X113344000Y-109474000D01*
X110684000Y-112074000D02*
X113344000Y-112074000D01*
X113344000Y-109474000D02*
X113344000Y-112074000D01*
%TO.C,Q3*%
X120501000Y-74781000D02*
X120501000Y-75051000D01*
X120501000Y-75051000D02*
X117671000Y-75051000D01*
X120501000Y-81411000D02*
X119401000Y-81411000D01*
X120501000Y-81681000D02*
X120501000Y-81411000D01*
X126921000Y-74781000D02*
X120501000Y-74781000D01*
X126921000Y-81681000D02*
X120501000Y-81681000D01*
%TO.C,LS1*%
X161802000Y-84826000D02*
G75*
G03*
X161802000Y-84826000I-6100000J0D01*
G01*
%TO.C,R3*%
X107844000Y-87918936D02*
X107844000Y-89373064D01*
X106024000Y-87918936D02*
X106024000Y-89373064D01*
D13*
%TO.C,U1*%
X93418000Y-99878000D02*
X93418000Y-88809000D01*
X93418000Y-99878000D02*
X93418000Y-71368000D01*
X144368000Y-99878000D02*
X93418000Y-99878000D01*
X144368000Y-99878000D02*
X93418000Y-99878000D01*
X144368000Y-99878000D02*
X144368000Y-94508000D01*
X144368000Y-94508000D02*
X144368000Y-76818000D01*
X93418000Y-88809000D02*
X93418000Y-82098000D01*
X93418000Y-82098000D02*
X93418000Y-71368000D01*
X144368000Y-76818000D02*
X144368000Y-71368000D01*
X93418000Y-71368000D02*
X144368000Y-71368000D01*
X93418000Y-71368000D02*
X144368000Y-71368000D01*
X144368000Y-71368000D02*
X144368000Y-99878000D01*
D14*
X103478000Y-100448000D02*
G75*
G03*
X103478000Y-100448000I-100000J0D01*
G01*
D12*
%TO.C,J2*%
X174184000Y-73346000D02*
X175514000Y-73346000D01*
X174184000Y-74676000D02*
X174184000Y-73346000D01*
X174184000Y-75946000D02*
X174184000Y-96326000D01*
X174184000Y-75946000D02*
X176844000Y-75946000D01*
X174184000Y-96326000D02*
X176844000Y-96326000D01*
X176844000Y-75946000D02*
X176844000Y-96326000D01*
%TO.C,R1*%
X107548000Y-78643564D02*
X107548000Y-77189436D01*
X109368000Y-78643564D02*
X109368000Y-77189436D01*
%TD*%
M02*
